<svg width="784" height="335" viewBox="0 0 784 335" fill="none" xmlns="http://www.w3.org/2000/svg">
<path d="M87.753 271.817L5.49712 324.983L5.49707 322.473L45.6222 283.856L9.5097 262.791L45.6222 203.607L26.841 78.1624L49.9129 83.1784V66.1253L658.624 50.1283L753.921 9L748.906 50.1283H776.993L740.092 232.268L58.5165 255.768L87.753 271.817Z" fill="white" stroke="#FF714E" stroke-width="10"/>
<path d="M119.466 165.761L99.7505 166.435L99.6387 163.166C99.5196 159.685 99.2139 157.415 98.7217 156.357C98.2295 155.299 97.2352 154.796 95.7386 154.847C94.5349 154.888 93.6401 155.391 93.0543 156.356C92.4999 157.287 92.2544 158.679 92.3178 160.534C92.4236 163.624 93.1157 165.767 94.3943 166.961C95.6403 168.156 99.2688 170.442 105.28 173.819C110.393 176.673 113.889 178.882 115.766 180.447C117.643 181.978 119.25 184.203 120.587 187.122C121.956 190.006 122.716 193.644 122.866 198.036C123.107 205.064 121.604 210.636 118.357 214.753C115.11 218.87 110.12 221.517 103.385 222.692L103.639 230.109L94.5624 230.42L94.3002 222.758C89.0121 222.418 84.3396 220.558 80.2829 217.18C76.2251 213.768 74.0459 207.67 73.7454 198.887L73.6135 195.031L93.3285 194.357L93.4938 199.188C93.6752 204.491 93.9834 207.786 94.4183 209.074C94.8847 210.329 95.8986 210.929 97.4602 210.876C98.7941 210.83 99.7713 210.357 100.392 209.456C101.011 208.523 101.291 207.178 101.231 205.421C101.08 200.997 100.663 197.852 99.9799 195.986C99.2961 194.087 97.1102 192.078 93.4222 189.956C87.2745 186.389 83.0807 183.764 80.8409 182.081C78.6325 180.365 76.6761 177.924 74.9718 174.758C73.3 171.591 72.3946 167.974 72.2554 163.907C72.054 158.019 73.5551 153.342 76.7588 149.878C79.9951 146.412 84.9345 144.175 91.577 143.166L91.3616 136.871L100.438 136.56L100.654 142.855C106.764 143.428 111.389 145.322 114.528 148.537C117.666 151.719 119.335 156.222 119.534 162.045C119.562 162.859 119.539 164.097 119.466 165.761ZM167.229 101.517L171.284 220.026L141.712 221.038L139.538 157.501C139.224 148.327 138.815 142.82 138.313 140.981C137.81 139.141 136.543 137.792 134.51 136.934C132.525 136.024 128.116 135.687 121.284 135.92L118.356 136.021L117.883 122.186C132.076 118.622 142.718 111.931 149.808 102.113L167.229 101.517ZM201.641 194.804L202.467 218.96L180.141 219.723L179.315 195.568L201.641 194.804ZM266.707 98.1131L269.357 175.558L277.775 175.27L278.466 195.473L270.048 195.761L270.762 216.623L241.189 217.635L240.476 196.773L205.34 197.975L204.649 177.772L227.546 99.453L266.707 98.1131ZM239.784 176.57L238.059 126.135L226.755 177.016L239.784 176.57Z" fill="#F44E24" style="mix-blend-mode:multiply"/>
<path d="M308.724 96.6755L339.467 95.6236C349.179 95.2914 356.549 95.7965 361.578 97.139C366.656 98.4798 370.812 101.416 374.045 105.946C377.276 110.428 379.067 117.793 379.418 128.041C379.655 134.971 378.722 139.839 376.62 142.647C374.566 145.454 370.368 147.698 364.025 149.381C371.205 150.747 376.128 153.266 378.794 156.937C381.458 160.559 382.923 166.225 383.186 173.935L383.562 184.915C383.836 192.918 383.112 198.879 381.389 202.798C379.715 206.715 376.902 209.449 372.949 211.001C368.996 212.553 360.822 213.542 348.427 213.966L312.778 215.185L308.724 96.6755ZM340.234 115.897L341.136 142.249C342.452 142.155 343.476 142.096 344.208 142.071C347.233 141.967 349.136 141.169 349.915 139.677C350.693 138.136 350.962 133.852 350.722 126.824C350.595 123.116 350.165 120.541 349.431 119.1C348.696 117.611 347.761 116.69 346.625 116.338C345.538 115.985 343.408 115.838 340.234 115.897ZM341.767 160.695L342.902 193.855C347.24 193.56 349.974 192.782 351.103 191.522C352.281 190.26 352.789 187.238 352.625 182.456L352.247 171.403C352.073 166.328 351.431 163.272 350.321 162.235C349.211 161.198 346.359 160.685 341.767 160.695Z" fill="#3B83AF" style="mix-blend-mode:multiply"/>
<path d="M421.158 92.8286L421.686 108.274L391.235 109.316L390.707 93.8705L421.158 92.8286ZM421.889 114.203L425.213 211.338L394.762 212.38L391.438 115.245L421.889 114.203Z" fill="#47B89F" style="mix-blend-mode:multiply"/>
<path d="M462.296 91.4211L466.351 209.931L435.9 210.973L431.845 92.463L462.296 91.4211Z" fill="#B3D570" style="mix-blend-mode:multiply"/>
<path d="M503.434 90.0136L507.489 208.523L477.038 209.565L472.983 91.0555L503.434 90.0136Z" fill="#E0D37B" style="mix-blend-mode:multiply"/>
<path d="M544.572 88.6061L545.1 104.051L514.65 105.093L514.121 89.6479L544.572 88.6061ZM545.303 109.98L548.627 207.116L518.176 208.158L514.852 111.022L545.303 109.98Z" fill="#ECB988" style="mix-blend-mode:multiply"/>
<path d="M624.062 141.436L624.876 165.226C625.175 173.961 624.955 180.393 624.217 184.523C623.477 188.603 621.728 192.474 618.971 196.135C616.212 199.747 612.593 202.484 608.113 204.348C603.68 206.16 598.536 207.167 592.68 207.367C586.141 207.591 580.578 207.073 575.991 205.813C571.402 204.504 567.79 202.454 565.154 199.662C562.565 196.819 560.664 193.366 559.45 189.304C558.234 185.192 557.485 179.013 557.203 170.766L556.352 145.878C556.043 136.85 556.778 129.765 558.556 124.624C560.334 119.482 563.708 115.287 568.678 112.039C573.648 108.791 580.086 107.031 587.992 106.761C594.628 106.534 600.348 107.34 605.15 109.178C609.999 110.967 613.771 113.403 616.466 116.486C619.161 119.57 621.029 122.779 622.072 126.115C623.163 129.448 623.826 134.556 624.062 141.436ZM594.239 135.128C594.068 130.151 593.693 127.037 593.113 125.786C592.531 124.487 591.362 123.868 589.605 123.928C587.848 123.988 586.7 124.687 586.159 126.024C585.617 127.313 585.431 130.446 585.601 135.424L587.101 179.27C587.258 183.857 587.654 186.849 588.288 188.244C588.92 189.59 590.09 190.234 591.798 190.176C593.555 190.115 594.68 189.442 595.174 188.155C595.716 186.866 595.915 184.123 595.771 179.926L594.239 135.128Z" fill="#F8987E" style="mix-blend-mode:multiply"/>
<path d="M662.788 105.961L662.581 114.908C664.607 111.273 667.127 108.524 670.141 106.662C673.202 104.749 676.758 103.724 680.808 103.585C685.884 103.412 690.072 104.465 693.375 106.746C696.678 109.027 698.855 111.982 699.908 115.61C700.958 119.189 701.629 125.225 701.919 133.716L704.249 201.791L674.676 202.803L672.374 135.533C672.146 128.847 671.787 124.78 671.297 123.331C670.808 121.882 669.563 121.192 667.562 121.26C665.464 121.332 664.176 122.231 663.697 123.958C663.217 125.635 663.102 130.134 663.353 137.454L665.599 203.114L636.027 204.125L632.703 106.99L662.788 105.961Z" fill="#F37D7D" style="mix-blend-mode:multiply"/>
</svg>
