<svg width="1440" height="55" viewBox="0 0 1440 55" fill="none" xmlns="http://www.w3.org/2000/svg">
<g filter="url(#filter0_d_651_625)">
<path d="M39.7796 23.5712C44.1731 25.4811 48.8173 27.5 55.3846 27.5C60.1884 27.5 64.482 25.7144 68.8132 23.9131C73.2211 22.08 77.668 20.2306 82.7313 20.2306C87.4796 20.2306 91.2208 21.857 95.1641 23.5712C99.5576 25.4811 104.202 27.5 110.769 27.5C115.573 27.5 119.867 25.7144 124.198 23.9131C128.606 22.08 133.053 20.2306 138.116 20.2306C142.864 20.2306 146.606 21.857 150.549 23.5712C154.942 25.4811 159.587 27.5 166.154 27.5C170.958 27.5 175.251 25.7144 179.583 23.9131C183.99 22.08 188.437 20.2306 193.501 20.2306C198.249 20.2306 201.99 21.857 205.933 23.5712C210.327 25.4811 214.971 27.5 221.539 27.5C226.342 27.5 230.636 25.7144 234.967 23.9131C239.375 22.08 243.822 20.2306 248.885 20.2306C253.634 20.2306 257.375 21.857 261.318 23.5712C265.712 25.4811 270.356 27.5 276.923 27.5C281.727 27.5 286.021 25.7144 290.352 23.9131C294.76 22.08 299.207 20.2306 304.27 20.2306C309.018 20.2306 312.76 21.857 316.703 23.5712C321.096 25.4811 325.741 27.5 332.308 27.5C337.112 27.5 341.405 25.7144 345.737 23.9131C350.144 22.08 354.591 20.2306 359.655 20.2306C364.403 20.2306 368.144 21.857 372.087 23.5712C376.481 25.4811 381.125 27.5 387.693 27.5C392.496 27.5 396.79 25.7144 401.121 23.9131C405.529 22.08 409.976 20.2306 415.039 20.2306C419.788 20.2306 423.529 21.857 427.472 23.5712C431.866 25.4811 436.51 27.5 443.077 27.5C447.881 27.5 452.175 25.7144 456.506 23.9131C460.914 22.08 465.361 20.2306 470.424 20.2306C475.172 20.2306 478.914 21.857 482.857 23.5712C487.25 25.4811 491.895 27.5 498.462 27.5C503.266 27.5 507.559 25.7144 511.891 23.9131C516.298 22.08 520.745 20.2306 525.809 20.2306C530.557 20.2306 534.298 21.857 538.242 23.5712C542.635 25.4811 547.279 27.5 553.847 27.5C558.651 27.5 562.944 25.7144 567.275 23.9131C571.683 22.08 576.13 20.2306 581.193 20.2306C585.942 20.2306 589.683 21.857 593.626 23.5712C598.02 25.4811 602.664 27.5 609.231 27.5C614.035 27.5 618.329 25.7144 622.66 23.9131C627.068 22.08 631.515 20.2306 636.578 20.2306C641.326 20.2306 645.068 21.857 649.011 23.5712C653.404 25.4811 658.049 27.5 664.616 27.5C669.42 27.5 673.713 25.7144 678.045 23.9131C682.453 22.08 686.899 20.2306 691.963 20.2306C696.711 20.2306 700.452 21.857 704.396 23.5712C708.789 25.481 713.433 27.4999 720 27.5C724.803 27.4998 729.098 25.7143 733.429 23.9131C737.836 22.08 742.283 20.2306 747.347 20.2306C752.095 20.2306 755.836 21.857 759.779 23.5712C764.173 25.4811 768.817 27.5 775.385 27.5C780.188 27.5 784.482 25.7144 788.813 23.9131C793.221 22.08 797.668 20.2306 802.731 20.2306C807.48 20.2306 811.221 21.857 815.164 23.5712C819.558 25.4811 824.202 27.5 830.769 27.5C835.573 27.5 839.867 25.7144 844.198 23.9131C848.606 22.08 853.053 20.2306 858.116 20.2306C862.864 20.2306 866.606 21.857 870.549 23.5712C874.942 25.4811 879.587 27.5 886.154 27.5C890.958 27.5 895.251 25.7144 899.583 23.9131C903.99 22.08 908.437 20.2306 913.501 20.2306C918.249 20.2306 921.99 21.857 925.934 23.5712C930.327 25.4811 934.971 27.5 941.539 27.5C946.342 27.5 950.636 25.7144 954.967 23.9131C959.375 22.08 963.822 20.2306 968.885 20.2306C973.634 20.2306 977.375 21.857 981.318 23.5712C985.712 25.4811 990.356 27.5 996.923 27.5C1001.73 27.5 1006.02 25.7144 1010.35 23.9131C1014.76 22.08 1019.21 20.2306 1024.27 20.2306C1029.02 20.2306 1032.76 21.857 1036.7 23.5712C1041.1 25.4811 1045.74 27.5 1052.31 27.5C1057.11 27.5 1061.41 25.7144 1065.74 23.9131C1070.14 22.08 1074.59 20.2306 1079.65 20.2306C1084.4 20.2306 1088.14 21.857 1092.09 23.5712C1096.48 25.4811 1101.13 27.5 1107.69 27.5C1112.5 27.5 1116.79 25.7144 1121.12 23.9131C1125.53 22.08 1129.98 20.2306 1135.04 20.2306C1139.79 20.2306 1143.53 21.857 1147.47 23.5712C1151.87 25.481 1156.51 27.4999 1163.08 27.5C1167.88 27.4998 1172.17 25.7143 1176.51 23.9131C1180.91 22.08 1185.36 20.2306 1190.42 20.2306C1195.17 20.2306 1198.91 21.857 1202.86 23.5712C1207.25 25.4811 1211.89 27.5 1218.46 27.5C1223.27 27.5 1227.56 25.7144 1231.89 23.9131C1236.3 22.08 1240.75 20.2306 1245.81 20.2306C1250.56 20.2306 1254.3 21.857 1258.24 23.5712C1262.64 25.481 1267.28 27.4999 1273.85 27.5C1278.65 27.4998 1282.94 25.7143 1287.28 23.9131C1291.68 22.08 1296.13 20.2306 1301.19 20.2306C1305.94 20.2306 1309.68 21.857 1313.63 23.5712C1318.02 25.4811 1322.66 27.5 1329.23 27.5C1334.04 27.5 1338.33 25.7144 1342.66 23.9131C1347.07 22.08 1351.52 20.2306 1356.58 20.2306C1361.33 20.2306 1365.07 21.857 1369.01 23.5712C1373.4 25.481 1378.05 27.4999 1384.62 27.5C1389.42 27.4998 1393.71 25.7143 1398.04 23.9131C1402.45 22.08 1406.9 20.2306 1411.96 20.2306C1416.71 20.2306 1420.45 21.857 1424.4 23.5712C1428.79 25.4811 1433.43 27.5 1440 27.5V-1.49994H0V27.5C4.80376 27.5 9.09738 25.7144 13.4286 23.9131C17.8364 22.08 22.2833 20.2306 27.3466 20.2306C32.095 20.2306 35.8362 21.857 39.7795 23.5712L39.7796 23.5712Z" fill="white"/>
</g>
<path d="M1439.77 27.3104C1433.21 27.3104 1428.56 25.2915 1424.17 23.3816C1420.23 21.6674 1416.49 20.041 1411.74 20.041C1406.67 20.041 1402.23 21.8904 1397.82 23.7235C1393.49 25.5248 1389.19 27.3104 1384.39 27.3104C1377.82 27.3104 1373.18 25.2915 1368.79 23.3816C1364.84 21.6674 1361.1 20.041 1356.35 20.041C1351.29 20.041 1346.84 21.8904 1342.43 23.7235C1338.1 25.5248 1333.81 27.3104 1329.01 27.3104C1322.44 27.3104 1317.79 25.2915 1313.4 23.3816C1309.46 21.6674 1305.72 20.041 1300.97 20.041C1295.9 20.041 1291.46 21.8904 1287.05 23.7235C1282.72 25.5248 1278.43 27.3104 1273.62 27.3104C1267.05 27.3104 1262.41 25.2915 1258.02 23.3816C1254.07 21.6674 1250.33 20.041 1245.58 20.041C1240.52 20.041 1236.07 21.8904 1231.67 23.7235C1227.33 25.5248 1223.04 27.3104 1218.24 27.3104C1211.67 27.3104 1207.02 25.2915 1202.63 23.3816C1198.69 21.6674 1194.95 20.041 1190.2 20.041C1185.14 20.041 1180.69 21.8904 1176.28 23.7235C1171.95 25.5248 1167.66 27.3104 1162.85 27.3104C1156.28 27.3104 1151.64 25.2915 1147.25 23.3816C1143.3 21.6674 1139.56 20.041 1134.81 20.041C1129.75 20.041 1125.3 21.8904 1120.9 23.7235C1116.56 25.5248 1112.27 27.3104 1107.47 27.3104C1100.9 27.3104 1096.26 25.2915 1091.86 23.3816C1087.92 21.6674 1084.18 20.041 1079.43 20.041C1074.37 20.041 1069.92 21.8904 1065.51 23.7235C1061.18 25.5248 1056.89 27.3104 1052.08 27.3104C1045.52 27.3104 1040.87 25.2915 1036.48 23.3816C1032.53 21.6674 1028.79 20.041 1024.04 20.041C1018.98 20.041 1014.53 21.8904 1010.13 23.7235C1005.8 25.5248 1001.5 27.3104 996.698 27.3104C990.131 27.3104 985.486 25.2915 981.093 23.3816C977.15 21.6674 973.408 20.041 968.66 20.041C963.597 20.041 959.15 21.8904 954.742 23.7235C950.411 25.5248 946.117 27.3104 941.313 27.3104C934.746 27.3104 930.102 25.2915 925.708 23.3816C921.765 21.6674 918.024 20.041 913.275 20.041C908.212 20.041 903.765 21.8904 899.357 23.7235C895.026 25.5248 890.732 27.3104 885.929 27.3104C879.361 27.3104 874.717 25.2915 870.324 23.3816C866.38 21.6674 862.639 20.041 857.891 20.041C852.827 20.041 848.38 21.8904 843.973 23.7235C839.641 25.5248 835.348 27.3104 830.544 27.3104C823.977 27.3104 819.332 25.2915 814.939 23.3816C810.996 21.6674 807.254 20.041 802.506 20.041C797.443 20.041 792.996 21.8904 788.588 23.7235C784.257 25.5248 779.963 27.3104 775.159 27.3104C768.592 27.3104 763.948 25.2915 759.554 23.3816C755.611 21.6674 751.87 20.041 747.121 20.041C742.058 20.041 737.611 21.8904 733.203 23.7235C728.872 25.5248 724.578 27.3104 719.775 27.3104C713.207 27.3104 708.563 25.2915 704.17 23.3816C700.226 21.6674 696.485 20.041 691.737 20.041C686.673 20.041 682.227 21.8904 677.819 23.7235C673.487 25.5248 669.194 27.3104 664.39 27.3104C657.823 27.3104 653.178 25.2915 648.785 23.3816C644.842 21.6674 641.1 20.041 636.352 20.041C631.289 20.041 626.842 21.8904 622.434 23.7235C618.103 25.5248 613.809 27.3104 609.005 27.3104C602.438 27.3104 597.794 25.2915 593.4 23.3816C589.457 21.6674 585.716 20.041 580.968 20.041C575.904 20.041 571.457 21.8904 567.049 23.7235C562.718 25.5248 558.425 27.3104 553.621 27.3104C547.053 27.3104 542.409 25.2915 538.016 23.3816C534.072 21.6674 530.331 20.041 525.583 20.041C520.519 20.041 516.073 21.8904 511.665 23.7235C507.333 25.5248 503.04 27.3104 498.236 27.3104C491.669 27.3104 487.025 25.2915 482.631 23.3816C478.688 21.6674 474.947 20.041 470.198 20.041C465.135 20.041 460.688 21.8904 456.28 23.7235C451.949 25.5248 447.655 27.3104 442.852 27.3104C436.284 27.3104 431.64 25.2915 427.246 23.3816C423.303 21.6674 419.562 20.041 414.814 20.041C409.75 20.041 405.303 21.8904 400.895 23.7235C396.564 25.5248 392.271 27.3104 387.467 27.3104C380.9 27.3104 376.255 25.2915 371.862 23.3816C367.918 21.6674 364.177 20.041 359.429 20.041C354.366 20.041 349.919 21.8904 345.511 23.7235C341.18 25.5248 336.886 27.3104 332.082 27.3104C325.515 27.3104 320.871 25.2915 316.477 23.3816C312.534 21.6674 308.793 20.041 304.044 20.041C298.981 20.041 294.534 21.8904 290.126 23.7235C285.795 25.5248 281.501 27.3104 276.698 27.3104C270.13 27.3104 265.486 25.2915 261.092 23.3816C257.149 21.6674 253.408 20.041 248.66 20.041C243.596 20.041 239.149 21.8904 234.741 23.7235C230.41 25.5248 226.117 27.3104 221.313 27.3104C214.746 27.3104 210.101 25.2915 205.708 23.3816C201.765 21.6674 198.023 20.041 193.275 20.041C188.212 20.041 183.765 21.8904 179.357 23.7235C175.026 25.5248 170.732 27.3104 165.928 27.3104C159.361 27.3104 154.717 25.2915 150.323 23.3816C146.38 21.6674 142.639 20.041 137.89 20.041C132.827 20.041 128.38 21.8904 123.972 23.7235C119.641 25.5248 115.347 27.3104 110.544 27.3104C103.976 27.3104 99.332 25.2915 94.9385 23.3816C90.9952 21.6674 87.254 20.041 82.5057 20.041C77.4424 20.041 72.9955 21.8904 68.5876 23.7235C64.2564 25.5248 59.9628 27.3104 55.1591 27.3104C48.5917 27.3104 43.9474 25.2915 39.5539 23.3816C35.6106 21.6674 31.8693 20.041 27.1211 20.041C22.0577 20.041 17.6108 21.8904 13.2029 23.7235C8.8717 25.5248 4.57815 27.3104 -0.225586 27.3104" stroke="#FF6115"/>
<defs>
<filter id="filter0_d_651_625" x="-20" y="-14.5" width="1480" height="69" filterUnits="userSpaceOnUse" color-interpolation-filters="sRGB">
<feFlood flood-opacity="0" result="BackgroundImageFix"/>
<feColorMatrix in="SourceAlpha" type="matrix" values="0 0 0 0 0 0 0 0 0 0 0 0 0 0 0 0 0 0 127 0" result="hardAlpha"/>
<feOffset dy="7"/>
<feGaussianBlur stdDeviation="10"/>
<feComposite in2="hardAlpha" operator="out"/>
<feColorMatrix type="matrix" values="0 0 0 0 0.973517 0 0 0 0 0.0862163 0 0 0 0 0.101005 0 0 0 0.2 0"/>
<feBlend mode="normal" in2="BackgroundImageFix" result="effect1_dropShadow_651_625"/>
<feBlend mode="normal" in="SourceGraphic" in2="effect1_dropShadow_651_625" result="shape"/>
</filter>
</defs>
</svg>
