<svg width="593" height="214" viewBox="0 0 593 214" fill="none" xmlns="http://www.w3.org/2000/svg">
<path d="M532.575 148.711C532.575 148.749 532.556 148.845 532.518 148.999V149.172C532.364 150.785 532.287 152.59 532.287 154.588C532.287 156.585 532.441 158.698 532.748 160.926C533.094 163.154 533.632 165.382 534.361 167.609C535.13 169.837 536.301 171.643 537.876 173.025C539.566 174.485 541.448 175.215 543.522 175.215C545.635 175.215 547.402 174.927 548.823 174.351C550.283 173.736 551.493 172.968 552.453 172.046C553.452 171.124 554.316 169.876 555.046 168.301C556.89 164.114 557.812 157.622 557.812 148.826C557.812 139.876 556.774 133.615 554.7 130.043C552.664 126.432 549.572 124.627 545.424 124.627C543.35 124.627 541.525 125.126 539.95 126.125C538.414 127.124 537.242 128.161 536.436 129.236C535.667 130.312 534.861 132.597 534.016 136.093C533.209 139.588 532.806 142.815 532.806 145.772L532.575 148.711ZM499.445 149.172L499.561 147.904C500.021 143.103 500.636 138.858 501.404 135.171C502.173 131.445 503.421 127.969 505.149 124.742C509.259 117.636 514.983 112.258 522.319 108.609C529.694 104.922 537.626 103.078 546.115 103.078C554.643 103.078 562.382 104.787 569.335 108.206C573.483 110.242 576.729 112.815 579.072 115.927C583.566 121.535 586.524 126.701 587.945 131.426C589.367 136.15 590.077 141.605 590.077 147.789C590.077 161.54 587.235 172.027 581.55 179.248L578.899 182.763C575.327 186.911 570.276 190.118 563.746 192.385C557.216 194.613 550.744 195.765 544.329 195.842C533.343 195.842 524.336 193.537 517.307 188.928C505.399 181.207 499.445 167.955 499.445 149.172Z" fill="#F9CA3D" stroke="#000000" stroke-width="2" stroke-linejoin="round"/>
<path d="M410.602 146.579C411.523 137.821 413.06 131.234 415.211 126.816C419.321 118.289 425.448 112.239 433.591 108.667C440.851 105.479 448.744 103.885 457.271 103.885C471.561 103.885 481.989 107.803 488.558 115.639C492.514 120.286 494.799 126.067 495.414 132.981L495.933 138.397C495.28 139.012 491.15 139.319 483.545 139.319L474.384 139.204H473.635L468.622 139.089L467.239 139.146H466.087C465.011 139.146 464.186 137.572 463.609 134.422C463.072 131.272 462.227 129.198 461.074 128.199C459.96 127.162 458.654 126.644 457.156 126.644C455.658 126.644 454.333 126.912 453.181 127.45C452.067 127.988 451.145 128.641 450.415 129.409C449.685 130.139 449.071 131.195 448.571 132.578C447.649 134.96 447.092 137.495 446.9 140.184C446.708 142.834 446.612 145.811 446.612 149.114V150.497L446.382 156.316C446.382 166.918 449.378 172.334 455.37 172.564C456.907 172.564 457.982 172.296 458.597 171.758C460.248 170.298 461.689 167.36 462.918 162.942C463.187 162.021 463.513 161.271 463.897 160.695H466.087L468.737 160.753H478.071L480.895 160.695L486.368 160.753H489.71L493.109 160.811H495.414C495.875 160.849 496.201 161.252 496.394 162.021L496.221 163.922C495.875 168.454 494.819 172.564 493.052 176.252C489.787 183.012 484.64 188.044 477.61 191.348C470.619 194.613 462.937 196.245 454.563 196.245C439.929 196.245 428.943 191.924 421.606 183.281C414.27 174.639 410.602 162.405 410.602 146.579Z" fill="#F9CA3D" stroke="#000000" stroke-width="2" stroke-linejoin="round"/>
<path d="M297.845 121.17L297.557 106.017C297.595 106.017 297.729 106.074 297.96 106.189C327.153 105.69 349.143 105.421 363.932 105.383C364.085 105.46 364.201 105.575 364.277 105.729V121.977C364.277 123.551 364.239 124.838 364.162 125.837C363.97 126.451 362.837 126.759 360.763 126.759H360.359C351.064 126.759 341.384 126.605 331.32 126.298C331.32 126.644 331.263 127.258 331.147 128.142C331.071 129.025 331.013 129.659 330.975 130.043L330.687 132.232C330.494 133.692 330.36 136.227 330.283 139.838L348.145 139.435C351.217 139.358 353.445 139.319 354.828 139.319H355.75C358.093 139.319 359.63 139.396 360.359 139.55C361.089 139.665 361.454 140.049 361.454 140.702L361.396 141.163V142.546L361.685 157.354L361.627 157.411V157.354C349.95 157.93 340.616 158.218 333.625 158.218H330.917V172.161L362.203 171.182C363.932 171.182 365.026 171.431 365.487 171.931C365.449 172.929 365.43 174.351 365.43 176.194L365.833 191.866C365.833 192.826 365.41 193.383 364.565 193.537L345.437 193.364C341.672 193.364 334.182 193.499 322.966 193.768L313.517 193.998C306.833 194.229 301.878 194.344 298.651 194.344L298.479 194.229H298.536C298.152 193.844 297.787 193.479 297.441 193.134V191.117L297.787 129.524L297.845 121.17Z" fill="#F9CA3D" stroke="#000000" stroke-width="2" stroke-linejoin="round"/>
<path d="M204.446 146.579C205.368 137.821 206.905 131.234 209.056 126.816C213.166 118.289 219.292 112.239 227.436 108.667C234.695 105.479 242.589 103.885 251.116 103.885C265.405 103.885 275.834 107.803 282.402 115.639C286.359 120.286 288.644 126.067 289.259 132.981L289.777 138.397C289.124 139.012 284.995 139.319 277.39 139.319L268.229 139.204H267.479L262.467 139.089L261.084 139.146H259.932C258.856 139.146 258.03 137.572 257.454 134.422C256.916 131.272 256.071 129.198 254.919 128.199C253.805 127.162 252.499 126.644 251.001 126.644C249.503 126.644 248.178 126.912 247.025 127.45C245.911 127.988 244.99 128.641 244.26 129.409C243.53 130.139 242.915 131.195 242.416 132.578C241.494 134.96 240.937 137.495 240.745 140.184C240.553 142.834 240.457 145.811 240.457 149.114V150.497L240.227 156.316C240.227 166.918 243.223 172.334 249.215 172.564C250.751 172.564 251.827 172.296 252.441 171.758C254.093 170.298 255.534 167.36 256.763 162.942C257.032 162.021 257.358 161.271 257.742 160.695H259.932L262.582 160.753H271.916L274.739 160.695L280.213 160.753H283.555L286.954 160.811H289.259C289.72 160.849 290.046 161.252 290.238 162.021L290.065 163.922C289.72 168.454 288.663 172.564 286.896 176.252C283.632 183.012 278.484 188.044 271.455 191.348C264.464 194.613 256.782 196.245 248.408 196.245C233.773 196.245 222.788 191.924 215.451 183.281C208.115 174.639 204.446 162.405 204.446 146.579Z" fill="#F9CA3D" stroke="#000000" stroke-width="2" stroke-linejoin="round"/>
<path d="M159.044 186.335C159.044 178.537 159.255 173.121 159.678 170.087C159.678 153.378 159.908 136.535 160.369 119.557C160.254 117.137 160.196 114.698 160.196 112.239V110.338C160.043 109.147 159.966 108.091 159.966 107.169C159.966 106.247 160.062 105.652 160.254 105.383C168.474 105.882 175.676 106.132 181.86 106.132C188.045 106.132 192.289 106.017 194.594 105.786C194.671 105.901 194.728 106.228 194.767 106.766H194.363V127.623L194.767 174.523C194.767 174.869 194.824 175.157 194.939 175.388V175.503C195.055 175.733 195.112 175.983 195.112 176.252L195.573 193.019C195.381 193.441 195.035 193.768 194.536 193.998H192.577L160.312 194.517C159.927 194.325 159.428 194.036 158.813 193.652L158.871 192.673L159.044 186.335Z" fill="#F9CA3D" stroke="#000000" stroke-width="2" stroke-linejoin="round"/>
<path d="M149.076 147.848L148.903 164.038C148.903 168.993 148.097 173.372 146.483 177.175C144.909 180.978 142.815 184.05 140.203 186.394C133.097 192.847 122.591 196.073 108.687 196.073C94.7816 196.073 83.9688 192.693 76.248 185.933C73.5208 183.59 71.2161 180.555 69.334 176.829C67.4902 173.065 66.3763 168.82 65.9922 164.096C66.1842 148.04 66.2803 133.194 66.2803 119.558C66.0882 119.558 65.9922 117.541 65.9922 113.508C65.9922 109.475 66.165 106.978 66.5107 106.018H67.7207C73.3672 105.71 81.0687 105.557 90.8252 105.557C91.5166 105.71 92.765 105.806 94.5703 105.845C96.4141 105.883 97.6816 105.941 98.373 106.018L100.159 106.248C100.428 113.854 100.601 124.321 100.678 137.649L100.332 160.812C100.332 168.494 102.56 172.335 107.016 172.335C108.898 172.335 110.473 171.509 111.74 169.857C113.046 168.206 113.738 166.343 113.814 164.269L114.045 163.692L114.218 144.275L114.275 142.547C114.275 133.635 114.16 125.031 113.93 116.734L113.814 112.528C113.738 110.838 113.699 109.321 113.699 107.977C113.699 106.632 113.91 105.71 114.333 105.211C129.16 105.211 140.338 105.269 147.866 105.384C148.135 105.653 148.481 105.902 148.903 106.133H148.846L149.479 106.536C149.172 113.796 149.019 123.13 149.019 134.538V144.448L149.076 147.848Z" fill="#F9CA3D" stroke="#000000" stroke-width="2" stroke-linejoin="round"/>
<path d="M3.97949 211.668L2.82715 191.79C9.39551 191.79 14.2546 190.273 17.4043 187.238C20.554 184.204 22.1289 179.556 22.1289 173.295V104.5H55.9453V173.295C55.9453 182.514 54.5817 189.927 51.8545 195.535C49.1273 201.182 44.7484 205.272 38.7178 207.808C32.7256 210.381 13.8128 211.668 3.97949 211.668Z" fill="#F9CA3D" stroke="#000000" stroke-width="2" stroke-linejoin="round"/>
<path d="M506.454 51.6689L506.396 55.5293V76.8477L506.512 86.9883V89.8691L506.569 92.5771C506.339 92.8844 505.398 93.0381 503.746 93.0381H502.248L484.156 93.2686C476.474 93.2686 470.751 93.2493 466.986 93.2109C466.41 92.5964 464.317 87.0075 460.706 76.4443L449.701 47.2324L447.627 47.5205L447.569 53.3975V69.0117L447.8 84.626V91.0791C447.8 92.8076 447.416 93.7103 446.647 93.7871C442.845 93.6719 439.215 93.6143 435.758 93.6143H433.972L425.271 93.8447H424.119L419.971 93.96L419.798 93.8447C418.53 92.654 417.896 91.7897 417.896 91.252V90.2148L417.954 89.0625L418.242 66.5918C418.242 41.9316 418.473 23.2829 418.934 10.6455L419.049 5.86328C419.049 5.51758 432.282 5.21029 458.747 4.94141C458.978 5.09505 459.323 5.9401 459.784 7.47656V7.30371L460.13 8.45605C462.972 16.5993 466.429 25.9525 470.501 36.5156C474.573 47.0404 476.647 52.418 476.724 52.6484L478.683 52.5332L478.913 5.5752C478.913 5.2679 481.717 5.11426 487.325 5.11426L500.183 5.40234H506.051C506.32 18.1165 506.454 33.5387 506.454 51.6689Z" fill="#F9CA3D" stroke="#000000" stroke-width="2" stroke-linejoin="round"/>
<path d="M336.945 5.22754L346.971 5.16992H369.384C369.537 5.16992 369.653 5.20833 369.729 5.28516L371.804 18.7676C372.341 22.6855 373.206 28.6009 374.396 36.5137C375.626 44.388 376.394 49.3623 376.701 51.4365L377.162 54.5479H379.352C380.35 43.4469 382.232 28.8314 384.998 10.7012L385.229 9.37598C385.267 9.06868 385.286 8.64616 385.286 8.1084C385.325 7.18652 385.497 6.4375 385.805 5.86133C386.15 5.24674 387.168 4.93945 388.858 4.93945C401.188 4.93945 410.196 5.28516 415.881 5.97656C416.035 6.13021 416.188 6.57194 416.342 7.30176C415.42 11.6038 413.903 18.3066 411.79 27.4102C409.677 36.5137 408.103 43.4469 407.065 48.21L406.604 50.3418C406.528 50.5723 406.278 51.2637 405.855 52.416C405.471 53.5684 405.299 54.375 405.337 54.8359L401.304 73.1006L399.46 82.1465C398.423 87.2552 397.712 90.9235 397.328 93.1514L397.04 93.0361C394.351 93.1898 390.26 93.2666 384.768 93.2666H375.779L372.668 93.209C368.327 93.209 364.371 93.2858 360.799 93.4395C360.453 93.4395 359.896 90.4049 359.128 84.3359C358.36 78.2669 357.937 75.0212 357.86 74.5986L357.342 71.7178C356.113 63.6514 354.883 55.1432 353.654 46.1934L351.522 46.1357C349.333 57.4287 347.393 71.1416 345.703 87.2744C345.281 91.4997 344.455 93.7083 343.226 93.9004C337.733 93.7083 332.413 93.6123 327.266 93.6123C322.118 93.6123 315.512 93.7467 307.445 94.0156C306.331 93.1322 305.486 90.8083 304.91 87.0439L304.564 84.7969C303.105 77.0378 300.07 62.7487 295.461 41.9297L294.251 36.3408C293.79 34.113 292.83 29.7148 291.37 23.1465C289.91 16.5397 288.662 10.682 287.625 5.57324C287.663 5.26595 287.932 4.99707 288.432 4.7666C289.315 4.88184 290.256 4.93945 291.255 4.93945H291.946L297.42 4.7666L305.371 4.59375C307.983 4.59375 310 4.65137 311.421 4.7666H315.051C315.396 4.7666 316.03 4.80501 316.952 4.88184H317.759C318.988 4.88184 320.716 14.4847 322.944 33.6904C323.943 42.3714 324.538 47.4417 324.73 48.9014L325.134 52.1855L327.381 52.2432C328.802 43.3317 330.377 32.9222 332.105 21.0146C332.105 19.6318 332.413 16.8854 333.027 12.7754C333.642 8.66536 334.276 6.13021 334.929 5.16992C335.351 5.20833 336.023 5.22754 336.945 5.22754Z" fill="#F9CA3D" stroke="#000000" stroke-width="2" stroke-linejoin="round"/>
<path d="M229.719 48.2109C229.719 48.2493 229.7 48.3454 229.661 48.499V48.6719C229.507 50.2852 229.431 52.0905 229.431 54.0879C229.431 56.0853 229.584 58.1979 229.892 60.4258C230.237 62.6536 230.775 64.8815 231.505 67.1094C232.273 69.3372 233.445 71.1426 235.02 72.5254C236.71 73.985 238.592 74.7148 240.666 74.7148C242.779 74.7148 244.546 74.4268 245.967 73.8506C247.426 73.236 248.636 72.4678 249.597 71.5459C250.595 70.624 251.46 69.3757 252.189 67.8008C254.033 63.6139 254.955 57.1224 254.955 48.3262C254.955 39.3763 253.918 33.1152 251.844 29.543C249.808 25.9323 246.716 24.127 242.567 24.127C240.493 24.127 238.669 24.6263 237.094 25.625C235.557 26.6237 234.386 27.6608 233.579 28.7363C232.811 29.8118 232.004 32.0973 231.159 35.5928C230.353 39.0882 229.949 42.3148 229.949 45.2725L229.719 48.2109ZM196.589 48.6719L196.704 47.4043C197.165 42.6029 197.78 38.3584 198.548 34.6709C199.316 30.945 200.564 27.4688 202.293 24.2422C206.403 17.1361 212.126 11.7585 219.463 8.10938C226.838 4.42188 234.77 2.57812 243.259 2.57812C251.786 2.57812 259.526 4.28743 266.479 7.70605C270.627 9.74186 273.873 12.3154 276.216 15.4268C280.71 21.0348 283.668 26.2012 285.089 30.9258C286.51 35.6504 287.221 41.1048 287.221 47.2891C287.221 61.0404 284.378 71.5267 278.693 78.748L276.043 82.2627C272.471 86.4111 267.42 89.6185 260.89 91.8848C254.36 94.1126 247.887 95.265 241.473 95.3418C230.487 95.3418 221.479 93.0371 214.45 88.4277C202.543 80.707 196.589 67.4551 196.589 48.6719Z" fill="#F9CA3D" stroke="#000000" stroke-width="2" stroke-linejoin="round"/>
<path d="M136.782 5.34473L155.277 5.17188C159.195 5.17188 162.748 5.2487 165.937 5.40234C174.502 5.63281 181.013 7.64941 185.469 11.4521C189.963 15.2549 192.21 20.6133 192.21 27.5273C192.21 32.3288 190.808 36.4388 188.004 39.8574C185.2 43.2376 181.109 46.2145 175.731 48.7881C184.259 51.4769 189.425 58.0068 191.23 68.3779C191.653 70.6442 191.979 73.237 192.21 76.1562C192.479 79.0755 192.69 81.0345 192.844 82.0332L193.42 84.9717C194.035 88.4287 194.572 90.9255 195.033 92.4619L194.803 92.6348C188.273 93.0573 182.3 93.2686 176.884 93.2686C171.506 93.2686 166.743 93.1725 162.595 92.9805H162.249C161.058 92.9805 159.791 87.3148 158.446 75.9834L158.158 73.5059C158.005 69.2806 157.256 66.4382 155.911 64.9785C154.605 63.5189 152.32 62.7891 149.055 62.7891L148.306 62.8467H145.252V80.3623L145.31 82.2061V92.75C145.194 93.1341 144.906 93.3646 144.445 93.4414C140.22 93.5951 134.247 93.6719 126.526 93.6719C118.844 93.6719 113.774 93.6911 111.315 93.7295L110.97 93.6143L110.854 93.6719C110.778 93.6719 110.662 93.6143 110.509 93.499L110.624 88.3135L110.566 86.585L110.797 62.6738V58.4678L110.854 54.1465L110.912 39.2236L110.97 37.2646L110.797 24.1855C110.797 24.1855 110.874 18.0589 111.027 5.80566C111.027 5.49837 112.122 5.34473 114.312 5.34473L117.999 5.40234H121.514L128.831 5.45996L136.782 5.34473ZM195.379 92.2891L195.091 92.4619V92.3467C195.091 92.3083 195.187 92.2891 195.379 92.2891ZM195.091 92.4619V92.5195C195.052 92.5195 195.033 92.5003 195.033 92.4619H195.091ZM158.101 24.1279C155.796 23.1292 152.723 22.6299 148.882 22.6299H145.54C145.118 23.2445 144.906 26.4902 144.906 32.3672C144.906 38.2057 145.002 42.1237 145.194 44.1211C157.217 43.8522 163.229 39.7038 163.229 31.6758C163.229 28.2572 161.519 25.7412 158.101 24.1279Z" fill="#F9CA3D" stroke="#000000" stroke-width="2" stroke-linejoin="round"/>
<path d="M20.2803 27.6982L20.2227 26.5459V22.9736C20.2227 18.0186 20.3187 12.3337 20.5107 5.91895L20.3955 5.80371L23.5068 5.63086C33.5322 5.0931 40.043 4.82422 43.0391 4.82422H69.8887C79.069 4.82422 86.6937 6.72559 92.7627 10.5283C94.9137 12.3721 96.6615 14.8496 98.0059 17.9609C99.3503 21.0723 100.022 24.5869 100.022 28.5049C100.022 36.0719 94.9521 42.5059 84.8115 47.8066C90.5348 49.3815 94.9137 51.9167 97.9482 55.4121C101.021 58.8691 102.558 63.1136 102.558 68.1455C102.558 77.057 98.5628 83.8174 90.5732 88.4268C84.6963 91.8838 77.2637 93.6123 68.2754 93.6123L51.1055 93.3818C43.6921 93.3818 33.8587 93.5547 21.6055 93.9004C20.5299 91.6341 19.9922 82.665 19.9922 66.9932C19.9922 51.3213 20.0882 38.223 20.2803 27.6982ZM56.1182 75.9238C66.0667 75.9238 71.041 72.4476 71.041 65.4951C71.041 61.0778 69.6966 58.1201 67.0078 56.6221C64.5879 55.3161 60.8812 54.5863 55.8877 54.4326H54.2168L53.1797 57.6592C52.9108 61.6156 52.7764 65.5143 52.7764 69.3555C52.7764 73.1582 53.1797 75.3477 53.9863 75.9238H56.1182ZM68.5059 37.3779C69.2741 35.9183 69.6582 34.1514 69.6582 32.0771C69.6582 28.0439 68.2178 25.3359 65.3369 23.9531C62.4561 22.5703 59.4408 21.8789 56.291 21.8789C53.1413 21.8789 51.5664 23.0312 51.5664 25.3359C51.5664 29.446 51.6624 33.652 51.8545 37.9541L51.9697 41.0078C52.0465 42.4674 52.8916 43.3317 54.5049 43.6006L57.3281 43.2549C63.1667 42.5635 66.8926 40.6045 68.5059 37.3779Z" fill="#F9CA3D" stroke="#000000" stroke-width="2" stroke-linejoin="round"/>
</svg>
