<svg width="1097" height="110" viewBox="0 0 1097 110" fill="none" xmlns="http://www.w3.org/2000/svg">
<path d="M1038.14 46.2109C1038.14 46.2493 1038.12 46.3454 1038.08 46.499V46.6719C1037.93 48.2852 1037.85 50.0905 1037.85 52.0879C1037.85 54.0853 1038.01 56.1979 1038.31 58.4258C1038.66 60.6536 1039.2 62.8815 1039.93 65.1094C1040.7 67.3372 1041.87 69.1426 1043.44 70.5254C1045.13 71.985 1047.01 72.7148 1049.09 72.7148C1051.2 72.7148 1052.97 72.4268 1054.39 71.8506C1055.85 71.236 1057.06 70.4678 1058.02 69.5459C1059.02 68.624 1059.88 67.3757 1060.61 65.8008C1062.46 61.6139 1063.38 55.1224 1063.38 46.3262C1063.38 37.3763 1062.34 31.1152 1060.27 27.543C1058.23 23.9323 1055.14 22.127 1050.99 22.127C1048.92 22.127 1047.09 22.6263 1045.52 23.625C1043.98 24.6237 1042.81 25.6608 1042 26.7363C1041.23 27.8118 1040.43 30.0973 1039.58 33.5928C1038.78 37.0882 1038.37 40.3148 1038.37 43.2725L1038.14 46.2109ZM1005.01 46.6719L1005.13 45.4043C1005.59 40.6029 1006.2 36.3584 1006.97 32.6709C1007.74 28.945 1008.99 25.4688 1010.72 22.2422C1014.83 15.1361 1020.55 9.75846 1027.89 6.10938C1035.26 2.42188 1043.19 0.578125 1051.68 0.578125C1060.21 0.578125 1067.95 2.28743 1074.9 5.70605C1079.05 7.74186 1082.3 10.3154 1084.64 13.4268C1089.13 19.0348 1092.09 24.2012 1093.51 28.9258C1094.93 33.6504 1095.64 39.1048 1095.64 45.2891C1095.64 59.0404 1092.8 69.5267 1087.12 76.748L1084.47 80.2627C1080.89 84.4111 1075.84 87.6185 1069.31 89.8848C1062.78 92.1126 1056.31 93.265 1049.9 93.3418C1038.91 93.3418 1029.9 91.0371 1022.87 86.4277C1010.97 78.707 1005.01 65.4551 1005.01 46.6719Z" fill="black"/>
<path d="M914.168 44.0791C915.09 35.3213 916.626 28.7337 918.777 24.3164C922.887 15.7891 929.014 9.73926 937.157 6.16699C944.417 2.97884 952.311 1.38477 960.838 1.38477C975.127 1.38477 985.556 5.30273 992.124 13.1387C996.08 17.7865 998.366 23.5674 998.98 30.4814L999.499 35.8975C998.846 36.512 994.717 36.8193 987.111 36.8193L977.95 36.7041H977.201L972.188 36.5889L970.806 36.6465H969.653C968.578 36.6465 967.752 35.0716 967.176 31.9219C966.638 28.7721 965.793 26.6979 964.641 25.6992C963.527 24.6621 962.221 24.1436 960.723 24.1436C959.225 24.1436 957.899 24.4124 956.747 24.9502C955.633 25.488 954.711 26.141 953.981 26.9092C953.252 27.639 952.637 28.6953 952.138 30.0781C951.216 32.4596 950.659 34.9948 950.467 37.6836C950.275 40.334 950.179 43.3109 950.179 46.6143V47.9971L949.948 53.8164C949.948 64.418 952.944 69.834 958.937 70.0645C960.473 70.0645 961.549 69.7956 962.163 69.2578C963.815 67.7982 965.255 64.8597 966.484 60.4424C966.753 59.5205 967.08 58.7715 967.464 58.1953H969.653L972.304 58.2529H981.638L984.461 58.1953L989.935 58.2529H993.276L996.676 58.3105H998.98C999.441 58.349 999.768 58.7523 999.96 59.5205L999.787 61.4219C999.441 65.9544 998.385 70.0645 996.618 73.752C993.353 80.5124 988.206 85.5443 981.177 88.8477C974.186 92.1126 966.504 93.7451 958.13 93.7451C943.495 93.7451 932.509 89.4238 925.173 80.7812C917.836 72.1387 914.168 59.9046 914.168 44.0791Z" fill="black"/>
<path d="M804.411 18.6699L804.123 3.5166C804.161 3.5166 804.296 3.57422 804.526 3.68945C833.719 3.1901 855.71 2.92122 870.498 2.88281C870.652 2.95964 870.767 3.07487 870.844 3.22852V19.4766C870.844 21.0514 870.805 22.3382 870.729 23.3369C870.536 23.9515 869.403 24.2588 867.329 24.2588H866.926C857.63 24.2588 847.951 24.1051 837.887 23.7979C837.887 24.1436 837.829 24.7581 837.714 25.6416C837.637 26.5251 837.579 27.1589 837.541 27.543L837.253 29.7324C837.061 31.1921 836.926 33.7272 836.85 37.3379L854.711 36.9346C857.784 36.8577 860.012 36.8193 861.395 36.8193H862.316C864.66 36.8193 866.196 36.8962 866.926 37.0498C867.656 37.165 868.021 37.5492 868.021 38.2021L867.963 38.6631V40.0459L868.251 54.8535L868.193 54.9111V54.8535C856.516 55.4297 847.182 55.7178 840.191 55.7178H837.483V69.6611L868.77 68.6816C870.498 68.6816 871.593 68.9313 872.054 69.4307C872.015 70.4294 871.996 71.8506 871.996 73.6943L872.399 89.3662C872.399 90.3265 871.977 90.8835 871.132 91.0371L852.003 90.8643C848.239 90.8643 840.748 90.9987 829.532 91.2676L820.083 91.498C813.399 91.7285 808.444 91.8438 805.218 91.8438L805.045 91.7285H805.103C804.718 91.3444 804.354 90.9795 804.008 90.6338V88.6172L804.354 27.0244L804.411 18.6699Z" fill="black"/>
<path d="M713.012 44.0791C713.934 35.3213 715.47 28.7337 717.621 24.3164C721.731 15.7891 727.858 9.73926 736.001 6.16699C743.261 2.97884 751.154 1.38477 759.682 1.38477C773.971 1.38477 784.399 5.30273 790.968 13.1387C794.924 17.7865 797.21 23.5674 797.824 30.4814L798.343 35.8975C797.69 36.512 793.561 36.8193 785.955 36.8193L776.794 36.7041H776.045L771.032 36.5889L769.649 36.6465H768.497C767.422 36.6465 766.596 35.0716 766.02 31.9219C765.482 28.7721 764.637 26.6979 763.484 25.6992C762.37 24.6621 761.064 24.1436 759.566 24.1436C758.068 24.1436 756.743 24.4124 755.591 24.9502C754.477 25.488 753.555 26.141 752.825 26.9092C752.095 27.639 751.481 28.6953 750.981 30.0781C750.06 32.4596 749.503 34.9948 749.311 37.6836C749.118 40.334 749.022 43.3109 749.022 46.6143V47.9971L748.792 53.8164C748.792 64.418 751.788 69.834 757.78 70.0645C759.317 70.0645 760.392 69.7956 761.007 69.2578C762.659 67.7982 764.099 64.8597 765.328 60.4424C765.597 59.5205 765.924 58.7715 766.308 58.1953H768.497L771.147 58.2529H780.481L783.305 58.1953L788.778 58.2529H792.12L795.52 58.3105H797.824C798.285 58.349 798.612 58.7523 798.804 59.5205L798.631 61.4219C798.285 65.9544 797.229 70.0645 795.462 73.752C792.197 80.5124 787.05 85.5443 780.021 88.8477C773.03 92.1126 765.347 93.7451 756.974 93.7451C742.339 93.7451 731.353 89.4238 724.017 80.7812C716.68 72.1387 713.012 59.9046 713.012 44.0791Z" fill="black"/>
<path d="M671.609 83.835C671.609 76.0374 671.821 70.6214 672.243 67.5869C672.243 50.8779 672.474 34.0345 672.935 17.0566C672.819 14.6367 672.762 12.1976 672.762 9.73926V7.83789C672.608 6.64714 672.531 5.59082 672.531 4.66895C672.531 3.74707 672.627 3.15169 672.819 2.88281C681.039 3.38216 688.242 3.63184 694.426 3.63184C700.61 3.63184 704.854 3.5166 707.159 3.28613C707.236 3.40137 707.294 3.72786 707.332 4.26562H706.929V25.123L707.332 72.0234C707.332 72.3691 707.39 72.6572 707.505 72.8877V73.0029C707.62 73.2334 707.678 73.4831 707.678 73.752L708.139 90.5186C707.947 90.9411 707.601 91.2676 707.102 91.498H705.143L672.877 92.0166C672.493 91.8245 671.993 91.5365 671.379 91.1523L671.437 90.1729L671.609 83.835Z" fill="black"/>
<path d="M665.643 45.3477L665.47 61.5381C665.47 66.4932 664.663 70.8721 663.05 74.6748C661.475 78.4775 659.382 81.5505 656.77 83.8936C649.663 90.3467 639.158 93.5732 625.253 93.5732C611.348 93.5732 600.535 90.193 592.814 83.4326C590.087 81.0895 587.783 78.055 585.9 74.3291C584.057 70.5648 582.943 66.3203 582.559 61.5957C582.751 45.5397 582.847 30.6937 582.847 17.0576C582.655 17.0576 582.559 15.041 582.559 11.0078C582.559 6.97461 582.731 4.47786 583.077 3.51758H584.287C589.934 3.21029 597.635 3.05664 607.392 3.05664C608.083 3.21029 609.331 3.30632 611.137 3.34473C612.98 3.38314 614.248 3.44076 614.939 3.51758L616.726 3.74805C616.994 11.3535 617.167 21.8206 617.244 35.1494L616.898 58.3115C616.898 65.9938 619.126 69.835 623.582 69.835C625.464 69.835 627.039 69.0091 628.307 67.3574C629.613 65.7057 630.304 63.8428 630.381 61.7686L630.611 61.1924L630.784 41.7754L630.842 40.0469C630.842 31.1354 630.727 22.5312 630.496 14.2344L630.381 10.0283C630.304 8.33822 630.266 6.82096 630.266 5.47656C630.266 4.13216 630.477 3.21029 630.899 2.71094C645.726 2.71094 656.904 2.76855 664.433 2.88379C664.701 3.15267 665.047 3.40234 665.47 3.63281H665.412L666.046 4.03613C665.739 11.2959 665.585 20.6299 665.585 32.0381V41.9482L665.643 45.3477Z" fill="black"/>
<path d="M524.547 109.168L523.395 89.29C529.963 89.29 534.822 87.7728 537.972 84.7383C541.121 81.7038 542.696 77.056 542.696 70.7949V2H576.513V70.7949C576.513 80.0137 575.149 87.4271 572.422 93.0352C569.695 98.6816 565.316 102.772 559.285 105.308C553.293 107.881 534.38 109.168 524.547 109.168Z" fill="black"/>
<path d="M480.454 49.6689L480.396 53.5293V74.8477L480.512 84.9883V87.8691L480.569 90.5771C480.339 90.8844 479.398 91.0381 477.746 91.0381H476.248L458.156 91.2686C450.474 91.2686 444.751 91.2493 440.986 91.2109C440.41 90.5964 438.317 85.0075 434.706 74.4443L423.701 45.2324L421.627 45.5205L421.569 51.3975V67.0117L421.8 82.626V89.0791C421.8 90.8076 421.416 91.7103 420.647 91.7871C416.845 91.6719 413.215 91.6143 409.758 91.6143H407.972L399.271 91.8447H398.119L393.971 91.96L393.798 91.8447C392.53 90.654 391.896 89.7897 391.896 89.252V88.2148L391.954 87.0625L392.242 64.5918C392.242 39.9316 392.473 21.2829 392.934 8.64551L393.049 3.86328C393.049 3.51758 406.282 3.21029 432.747 2.94141C432.978 3.09505 433.323 3.9401 433.784 5.47656V5.30371L434.13 6.45605C436.972 14.5993 440.429 23.9525 444.501 34.5156C448.573 45.0404 450.647 50.418 450.724 50.6484L452.683 50.5332L452.913 3.5752C452.913 3.2679 455.717 3.11426 461.325 3.11426L474.183 3.40234H480.051C480.32 16.1165 480.454 31.5387 480.454 49.6689Z" fill="black"/>
<path d="M307.945 3.22754L317.971 3.16992H340.384C340.537 3.16992 340.653 3.20833 340.729 3.28516L342.804 16.7676C343.341 20.6855 344.206 26.6009 345.396 34.5137C346.626 42.388 347.394 47.3623 347.701 49.4365L348.162 52.5479H350.352C351.35 41.4469 353.232 26.8314 355.998 8.70117L356.229 7.37598C356.267 7.06868 356.286 6.64616 356.286 6.1084C356.325 5.18652 356.497 4.4375 356.805 3.86133C357.15 3.24674 358.168 2.93945 359.858 2.93945C372.188 2.93945 381.196 3.28516 386.881 3.97656C387.035 4.13021 387.188 4.57194 387.342 5.30176C386.42 9.60384 384.903 16.3066 382.79 25.4102C380.677 34.5137 379.103 41.4469 378.065 46.21L377.604 48.3418C377.528 48.5723 377.278 49.2637 376.855 50.416C376.471 51.5684 376.299 52.375 376.337 52.8359L372.304 71.1006L370.46 80.1465C369.423 85.2552 368.712 88.9235 368.328 91.1514L368.04 91.0361C365.351 91.1898 361.26 91.2666 355.768 91.2666H346.779L343.668 91.209C339.327 91.209 335.371 91.2858 331.799 91.4395C331.453 91.4395 330.896 88.4049 330.128 82.3359C329.36 76.2669 328.937 73.0212 328.86 72.5986L328.342 69.7178C327.113 61.6514 325.883 53.1432 324.654 44.1934L322.522 44.1357C320.333 55.4287 318.393 69.1416 316.703 85.2744C316.281 89.4997 315.455 91.7083 314.226 91.9004C308.733 91.7083 303.413 91.6123 298.266 91.6123C293.118 91.6123 286.512 91.7467 278.445 92.0156C277.331 91.1322 276.486 88.8083 275.91 85.0439L275.564 82.7969C274.105 75.0378 271.07 60.7487 266.461 39.9297L265.251 34.3408C264.79 32.113 263.83 27.7148 262.37 21.1465C260.91 14.5397 259.662 8.68197 258.625 3.57324C258.663 3.26595 258.932 2.99707 259.432 2.7666C260.315 2.88184 261.256 2.93945 262.255 2.93945H262.946L268.42 2.7666L276.371 2.59375C278.983 2.59375 281 2.65137 282.421 2.7666H286.051C286.396 2.7666 287.03 2.80501 287.952 2.88184H288.759C289.988 2.88184 291.716 12.4847 293.944 31.6904C294.943 40.3714 295.538 45.4417 295.73 46.9014L296.134 50.1855L298.381 50.2432C299.802 41.3317 301.377 30.9222 303.105 19.0146C303.105 17.6318 303.413 14.8854 304.027 10.7754C304.642 6.66536 305.276 4.13021 305.929 3.16992C306.351 3.20833 307.023 3.22754 307.945 3.22754Z" fill="black"/>
<path d="M203.719 46.2109C203.719 46.2493 203.7 46.3454 203.661 46.499V46.6719C203.507 48.2852 203.431 50.0905 203.431 52.0879C203.431 54.0853 203.584 56.1979 203.892 58.4258C204.237 60.6536 204.775 62.8815 205.505 65.1094C206.273 67.3372 207.445 69.1426 209.02 70.5254C210.71 71.985 212.592 72.7148 214.666 72.7148C216.779 72.7148 218.546 72.4268 219.967 71.8506C221.426 71.236 222.636 70.4678 223.597 69.5459C224.595 68.624 225.46 67.3757 226.189 65.8008C228.033 61.6139 228.955 55.1224 228.955 46.3262C228.955 37.3763 227.918 31.1152 225.844 27.543C223.808 23.9323 220.716 22.127 216.567 22.127C214.493 22.127 212.669 22.6263 211.094 23.625C209.557 24.6237 208.386 25.6608 207.579 26.7363C206.811 27.8118 206.004 30.0973 205.159 33.5928C204.353 37.0882 203.949 40.3148 203.949 43.2725L203.719 46.2109ZM170.589 46.6719L170.704 45.4043C171.165 40.6029 171.78 36.3584 172.548 32.6709C173.316 28.945 174.564 25.4688 176.293 22.2422C180.403 15.1361 186.126 9.75846 193.463 6.10938C200.838 2.42188 208.77 0.578125 217.259 0.578125C225.786 0.578125 233.526 2.28743 240.479 5.70605C244.627 7.74186 247.873 10.3154 250.216 13.4268C254.71 19.0348 257.668 24.2012 259.089 28.9258C260.51 33.6504 261.221 39.1048 261.221 45.2891C261.221 59.0404 258.378 69.5267 252.693 76.748L250.043 80.2627C246.471 84.4111 241.42 87.6185 234.89 89.8848C228.36 92.1126 221.887 93.265 215.473 93.3418C204.487 93.3418 195.479 91.0371 188.45 86.4277C176.543 78.707 170.589 65.4551 170.589 46.6719Z" fill="black"/>
<path d="M113.782 3.34473L132.277 3.17188C136.195 3.17188 139.748 3.2487 142.937 3.40234C151.502 3.63281 158.013 5.64941 162.469 9.45215C166.963 13.2549 169.21 18.6133 169.21 25.5273C169.21 30.3288 167.808 34.4388 165.004 37.8574C162.2 41.2376 158.109 44.2145 152.731 46.7881C161.259 49.4769 166.425 56.0068 168.23 66.3779C168.653 68.6442 168.979 71.237 169.21 74.1562C169.479 77.0755 169.69 79.0345 169.844 80.0332L170.42 82.9717C171.035 86.4287 171.572 88.9255 172.033 90.4619L171.803 90.6348C165.273 91.0573 159.3 91.2686 153.884 91.2686C148.506 91.2686 143.743 91.1725 139.595 90.9805H139.249C138.058 90.9805 136.791 85.3148 135.446 73.9834L135.158 71.5059C135.005 67.2806 134.256 64.4382 132.911 62.9785C131.605 61.5189 129.32 60.7891 126.055 60.7891L125.306 60.8467H122.252V78.3623L122.31 80.2061V90.75C122.194 91.1341 121.906 91.3646 121.445 91.4414C117.22 91.5951 111.247 91.6719 103.526 91.6719C95.8441 91.6719 90.7738 91.6911 88.3154 91.7295L87.9697 91.6143L87.8545 91.6719C87.7777 91.6719 87.6624 91.6143 87.5088 91.499L87.624 86.3135L87.5664 84.585L87.7969 60.6738V56.4678L87.8545 52.1465L87.9121 37.2236L87.9697 35.2646L87.7969 22.1855C87.7969 22.1855 87.8737 16.0589 88.0273 3.80566C88.0273 3.49837 89.1221 3.34473 91.3115 3.34473L94.999 3.40234H98.5137L105.831 3.45996L113.782 3.34473ZM172.379 90.2891L172.091 90.4619V90.3467C172.091 90.3083 172.187 90.2891 172.379 90.2891ZM172.091 90.4619V90.5195C172.052 90.5195 172.033 90.5003 172.033 90.4619H172.091ZM135.101 22.1279C132.796 21.1292 129.723 20.6299 125.882 20.6299H122.54C122.118 21.2445 121.906 24.4902 121.906 30.3672C121.906 36.2057 122.002 40.1237 122.194 42.1211C134.217 41.8522 140.229 37.7038 140.229 29.6758C140.229 26.2572 138.519 23.7412 135.101 22.1279Z" fill="black"/>
<path d="M1.28027 25.6982L1.22266 24.5459V20.9736C1.22266 16.0186 1.31868 10.3337 1.51074 3.91895L1.39551 3.80371L4.50684 3.63086C14.5322 3.0931 21.043 2.82422 24.0391 2.82422H50.8887C60.069 2.82422 67.6937 4.72559 73.7627 8.52832C75.9137 10.3721 77.6615 12.8496 79.0059 15.9609C80.3503 19.0723 81.0225 22.5869 81.0225 26.5049C81.0225 34.0719 75.9521 40.5059 65.8115 45.8066C71.5348 47.3815 75.9137 49.9167 78.9482 53.4121C82.0212 56.8691 83.5576 61.1136 83.5576 66.1455C83.5576 75.057 79.5628 81.8174 71.5732 86.4268C65.6963 89.8838 58.2637 91.6123 49.2754 91.6123L32.1055 91.3818C24.6921 91.3818 14.8587 91.5547 2.60547 91.9004C1.52995 89.6341 0.992188 80.665 0.992188 64.9932C0.992188 49.3213 1.08822 36.223 1.28027 25.6982ZM37.1182 73.9238C47.0667 73.9238 52.041 70.4476 52.041 63.4951C52.041 59.0778 50.6966 56.1201 48.0078 54.6221C45.5879 53.3161 41.8812 52.5863 36.8877 52.4326H35.2168L34.1797 55.6592C33.9108 59.6156 33.7764 63.5143 33.7764 67.3555C33.7764 71.1582 34.1797 73.3477 34.9863 73.9238H37.1182ZM49.5059 35.3779C50.2741 33.9183 50.6582 32.1514 50.6582 30.0771C50.6582 26.0439 49.2178 23.3359 46.3369 21.9531C43.4561 20.5703 40.4408 19.8789 37.291 19.8789C34.1413 19.8789 32.5664 21.0312 32.5664 23.3359C32.5664 27.446 32.6624 31.652 32.8545 35.9541L32.9697 39.0078C33.0465 40.4674 33.8916 41.3317 35.5049 41.6006L38.3281 41.2549C44.1667 40.5635 47.8926 38.6045 49.5059 35.3779Z" fill="black"/>
</svg>
