<svg width="56" height="47" viewBox="0 0 56 47" fill="none" xmlns="http://www.w3.org/2000/svg">
<g clip-path="url(#clip0_994_1131)">
<path d="M-153.22 24.5712C-148.827 26.4811 -144.183 28.5 -137.615 28.5C-132.812 28.5 -128.518 26.7144 -124.187 24.9131C-119.779 23.08 -115.332 21.2306 -110.269 21.2306C-105.52 21.2306 -101.779 22.857 -97.8359 24.5712C-93.4424 26.4811 -88.7981 28.5 -82.2307 28.5C-77.4269 28.5 -73.1334 26.7144 -68.8021 24.9131C-64.3943 23.08 -59.9474 21.2306 -54.884 21.2306C-50.1357 21.2306 -46.3945 22.857 -42.4512 24.5712C-38.0577 26.4811 -33.4134 28.5 -26.846 28.5C-22.0423 28.5 -17.7487 26.7144 -13.4174 24.9131C-9.00958 23.08 -4.56268 21.2306 0.500656 21.2306C5.24893 21.2306 8.99019 22.857 12.9335 24.5712C17.327 26.4811 21.9713 28.5 28.5387 28.5C33.3424 28.5 37.636 26.7144 41.9672 24.9131C46.3751 23.08 50.822 21.2306 55.8853 21.2306C60.6336 21.2306 64.3749 22.857 68.3181 24.5712C72.7116 26.4811 77.3559 28.5 83.9233 28.5C88.7271 28.5 93.0207 26.7144 97.3519 24.9131C101.76 23.08 106.207 21.2306 111.27 21.2306C116.018 21.2306 119.76 22.857 123.703 24.5712C128.096 26.4811 132.741 28.5 139.308 28.5C144.112 28.5 148.405 26.7144 152.737 24.9131C157.144 23.08 161.591 21.2306 166.655 21.2306C171.403 21.2306 175.144 22.857 179.087 24.5712C183.481 26.4811 188.125 28.5 194.693 28.5C199.496 28.5 203.79 26.7144 208.121 24.9131C212.529 23.08 216.976 21.2306 222.039 21.2306C226.788 21.2306 230.529 22.857 234.472 24.5712C238.866 26.4811 243.51 28.5 250.077 28.5C254.881 28.5 259.175 26.7144 263.506 24.9131C267.914 23.08 272.361 21.2306 277.424 21.2306C282.172 21.2306 285.914 22.857 289.857 24.5712C294.25 26.4811 298.895 28.5 305.462 28.5C310.266 28.5 314.559 26.7144 318.891 24.9131C323.298 23.08 327.745 21.2306 332.809 21.2306C337.557 21.2306 341.298 22.857 345.242 24.5712C349.635 26.4811 354.279 28.5 360.847 28.5C365.651 28.5 369.944 26.7144 374.275 24.9131C378.683 23.08 383.13 21.2306 388.193 21.2306C392.942 21.2306 396.683 22.857 400.626 24.5712C405.02 26.4811 409.664 28.5 416.231 28.5C421.035 28.5 425.329 26.7144 429.66 24.9131C434.068 23.08 438.515 21.2306 443.578 21.2306C448.326 21.2306 452.068 22.857 456.011 24.5712C460.404 26.4811 465.049 28.5 471.616 28.5C476.42 28.5 480.713 26.7144 485.045 24.9131C489.453 23.08 493.899 21.2306 498.963 21.2306C503.711 21.2306 507.452 22.857 511.396 24.5712C515.789 26.481 520.433 28.4999 527 28.5C531.803 28.4998 536.098 26.7143 540.429 24.9131C544.836 23.08 549.283 21.2306 554.347 21.2306C559.095 21.2306 562.836 22.857 566.779 24.5712C571.173 26.4811 575.817 28.5 582.385 28.5C587.188 28.5 591.482 26.7144 595.813 24.9131C600.221 23.08 604.668 21.2306 609.731 21.2306C614.48 21.2306 618.221 22.857 622.164 24.5712C626.558 26.4811 631.202 28.5 637.769 28.5C642.573 28.5 646.867 26.7144 651.198 24.9131C655.606 23.08 660.053 21.2306 665.116 21.2306C669.864 21.2306 673.606 22.857 677.549 24.5712C681.942 26.4811 686.587 28.5 693.154 28.5C697.958 28.5 702.251 26.7144 706.583 24.9131C710.99 23.08 715.437 21.2306 720.501 21.2306C725.249 21.2306 728.99 22.857 732.934 24.5712C737.327 26.4811 741.971 28.5 748.539 28.5C753.342 28.5 757.636 26.7144 761.967 24.9131C766.375 23.08 770.822 21.2306 775.885 21.2306C780.634 21.2306 784.375 22.857 788.318 24.5712C792.712 26.4811 797.356 28.5 803.923 28.5C808.727 28.5 813.021 26.7144 817.352 24.9131C821.76 23.08 826.207 21.2306 831.27 21.2306C836.018 21.2306 839.76 22.857 843.703 24.5712C848.096 26.4811 852.741 28.5 859.308 28.5C864.112 28.5 868.405 26.7144 872.737 24.9131C877.144 23.08 881.591 21.2306 886.655 21.2306C891.403 21.2306 895.144 22.857 899.088 24.5712C903.481 26.4811 908.125 28.5 914.693 28.5C919.496 28.5 923.791 26.7144 928.122 24.9131C932.53 23.08 936.977 21.2306 942.04 21.2306C946.788 21.2306 950.53 22.857 954.473 24.5712C958.866 26.481 963.51 28.4999 970.077 28.5C974.881 28.4998 979.175 26.7143 983.506 24.9131C987.914 23.08 992.361 21.2306 997.424 21.2306C1002.17 21.2306 1005.91 22.857 1009.86 24.5712C1014.25 26.4811 1018.89 28.5 1025.46 28.5C1030.27 28.5 1034.56 26.7144 1038.89 24.9131C1043.3 23.08 1047.75 21.2306 1052.81 21.2306C1057.56 21.2306 1061.3 22.857 1065.24 24.5712C1069.64 26.481 1074.28 28.4999 1080.85 28.5C1085.65 28.4998 1089.94 26.7143 1094.28 24.9131C1098.68 23.08 1103.13 21.2306 1108.19 21.2306C1112.94 21.2306 1116.68 22.857 1120.63 24.5712C1125.02 26.4811 1129.66 28.5 1136.23 28.5C1141.04 28.5 1145.33 26.7144 1149.66 24.9131C1154.07 23.08 1158.52 21.2306 1163.58 21.2306C1168.33 21.2306 1172.07 22.857 1176.01 24.5712C1180.4 26.481 1185.05 28.4999 1191.62 28.5C1196.42 28.4998 1200.71 26.7143 1205.04 24.9131C1209.45 23.08 1213.9 21.2306 1218.96 21.2306C1223.71 21.2306 1227.45 22.857 1231.4 24.5712C1235.79 26.4811 1240.43 28.5 1247 28.5V-0.499937H-193V28.5C-188.196 28.5 -183.903 26.7144 -179.571 24.9131C-175.164 23.08 -170.717 21.2306 -165.653 21.2306C-160.905 21.2306 -157.164 22.857 -153.221 24.5712L-153.22 24.5712Z" fill="white"/>
<path d="M1246.77 28.3101C1240.21 28.3101 1235.56 26.2912 1231.17 24.3813C1227.23 22.6671 1223.49 21.0408 1218.74 21.0408C1213.67 21.0408 1209.23 22.8901 1204.82 24.7233C1200.49 26.5245 1196.19 28.3101 1191.39 28.3101C1184.82 28.3101 1180.18 26.2912 1175.79 24.3813C1171.84 22.6671 1168.1 21.0408 1163.35 21.0408C1158.29 21.0408 1153.84 22.8901 1149.43 24.7233C1145.1 26.5245 1140.81 28.3101 1136.01 28.3101C1129.44 28.3101 1124.79 26.2912 1120.4 24.3813C1116.46 22.6671 1112.72 21.0408 1107.97 21.0408C1102.9 21.0408 1098.46 22.8901 1094.05 24.7233C1089.72 26.5245 1085.43 28.3101 1080.62 28.3101C1074.05 28.3101 1069.41 26.2912 1065.02 24.3813C1061.07 22.6671 1057.33 21.0408 1052.58 21.0408C1047.52 21.0408 1043.07 22.8901 1038.67 24.7233C1034.33 26.5245 1030.04 28.3101 1025.24 28.3101C1018.67 28.3101 1014.02 26.2912 1009.63 24.3813C1005.69 22.6671 1001.95 21.0408 997.199 21.0408C992.135 21.0408 987.688 22.8901 983.28 24.7233C978.949 26.5245 974.656 28.3101 969.852 28.3101C963.285 28.3101 958.64 26.2912 954.247 24.3813C950.303 22.6671 946.562 21.0408 941.814 21.0408C936.751 21.0408 932.304 22.8901 927.896 24.7233C923.565 26.5245 919.271 28.3101 914.467 28.3101C907.9 28.3101 903.256 26.2912 898.862 24.3813C894.919 22.6671 891.178 21.0408 886.429 21.0408C881.366 21.0408 876.919 22.8901 872.511 24.7233C868.18 26.5245 863.886 28.3101 859.083 28.3101C852.515 28.3101 847.871 26.2912 843.477 24.3813C839.534 22.6671 835.793 21.0408 831.045 21.0408C825.981 21.0408 821.534 22.8901 817.127 24.7233C812.795 26.5245 808.502 28.3101 803.698 28.3101C797.131 28.3101 792.486 26.2912 788.093 24.3813C784.15 22.6671 780.408 21.0408 775.66 21.0408C770.597 21.0408 766.15 22.8901 761.742 24.7233C757.411 26.5245 753.117 28.3101 748.313 28.3101C741.746 28.3101 737.102 26.2912 732.708 24.3813C728.765 22.6671 725.024 21.0408 720.275 21.0408C715.212 21.0408 710.765 22.8901 706.357 24.7233C702.026 26.5245 697.732 28.3101 692.929 28.3101C686.361 28.3101 681.717 26.2912 677.324 24.3813C673.38 22.6671 669.639 21.0408 664.891 21.0408C659.827 21.0408 655.38 22.8901 650.973 24.7233C646.641 26.5245 642.348 28.3101 637.544 28.3101C630.977 28.3101 626.332 26.2912 621.939 24.3813C617.996 22.6671 614.254 21.0408 609.506 21.0408C604.443 21.0408 599.996 22.8901 595.588 24.7233C591.257 26.5245 586.963 28.3101 582.159 28.3101C575.592 28.3101 570.948 26.2912 566.554 24.3813C562.611 22.6671 558.87 21.0408 554.121 21.0408C549.058 21.0408 544.611 22.8901 540.203 24.7233C535.872 26.5245 531.578 28.3101 526.775 28.3101C520.207 28.3101 515.563 26.2912 511.17 24.3813C507.226 22.6671 503.485 21.0408 498.737 21.0408C493.673 21.0408 489.227 22.8901 484.819 24.7233C480.487 26.5245 476.194 28.3101 471.39 28.3101C464.823 28.3101 460.178 26.2912 455.785 24.3813C451.842 22.6671 448.1 21.0408 443.352 21.0408C438.289 21.0408 433.842 22.8901 429.434 24.7233C425.103 26.5245 420.809 28.3101 416.005 28.3101C409.438 28.3101 404.794 26.2912 400.4 24.3813C396.457 22.6671 392.716 21.0408 387.968 21.0408C382.904 21.0408 378.457 22.8901 374.049 24.7233C369.718 26.5245 365.425 28.3101 360.621 28.3101C354.053 28.3101 349.409 26.2912 345.016 24.3813C341.072 22.6671 337.331 21.0408 332.583 21.0408C327.519 21.0408 323.073 22.8901 318.665 24.7233C314.333 26.5245 310.04 28.3101 305.236 28.3101C298.669 28.3101 294.025 26.2912 289.631 24.3813C285.688 22.6671 281.947 21.0408 277.198 21.0408C272.135 21.0408 267.688 22.8901 263.28 24.7233C258.949 26.5245 254.655 28.3101 249.852 28.3101C243.284 28.3101 238.64 26.2912 234.246 24.3813C230.303 22.6671 226.562 21.0408 221.814 21.0408C216.75 21.0408 212.303 22.8901 207.895 24.7233C203.564 26.5245 199.271 28.3101 194.467 28.3101C187.9 28.3101 183.255 26.2912 178.862 24.3813C174.918 22.6671 171.177 21.0408 166.429 21.0408C161.366 21.0408 156.919 22.8901 152.511 24.7233C148.18 26.5245 143.886 28.3101 139.082 28.3101C132.515 28.3101 127.871 26.2912 123.477 24.3813C119.534 22.6671 115.793 21.0408 111.044 21.0408C105.981 21.0408 101.534 22.8901 97.1261 24.7233C92.7949 26.5245 88.5014 28.3101 83.6976 28.3101C77.1303 28.3101 72.4859 26.2912 68.0925 24.3813C64.1492 22.6671 60.4079 21.0408 55.6596 21.0408C50.5963 21.0408 46.1494 22.8901 41.7415 24.7233C37.4103 26.5245 33.1167 28.3101 28.313 28.3101C21.7456 28.3101 17.1013 26.2912 12.7078 24.3813C8.76451 22.6671 5.02326 21.0408 0.274999 21.0408C-4.78836 21.0408 -9.23526 22.8901 -13.6431 24.7233C-17.9744 26.5245 -22.2679 28.3101 -27.0717 28.3101C-33.639 28.3101 -38.2833 26.2912 -42.6768 24.3813C-46.6201 22.6671 -50.3614 21.0408 -55.1096 21.0408C-60.173 21.0408 -64.6199 22.8901 -69.0278 24.7233C-73.359 26.5245 -77.6526 28.3101 -82.4563 28.3101C-89.0237 28.3101 -93.668 26.2912 -98.0615 24.3813C-102.005 22.6671 -105.746 21.0408 -110.494 21.0408C-115.558 21.0408 -120.005 22.8901 -124.412 24.7233C-128.744 26.5245 -133.037 28.3101 -137.841 28.3101C-144.408 28.3101 -149.053 26.2912 -153.446 24.3813C-157.389 22.6671 -161.131 21.0408 -165.879 21.0408C-170.942 21.0408 -175.389 22.8901 -179.797 24.7233C-184.128 26.5245 -188.422 28.3101 -193.226 28.3101" stroke="#FF671D" stroke-width="3"/>
</g>
<defs>
<clipPath id="clip0_994_1131">
<rect width="56" height="47" fill="white"/>
</clipPath>
</defs>
</svg>
