<svg width="56" height="47" viewBox="0 0 56 47" fill="none" xmlns="http://www.w3.org/2000/svg">
<g clip-path="url(#clip0_725_1360)">
<g filter="url(#filter0_d_725_1360)">
<path d="M-153.22 24.5712C-148.827 26.4811 -144.183 28.5 -137.615 28.5C-132.812 28.5 -128.518 26.7144 -124.187 24.9131C-119.779 23.08 -115.332 21.2306 -110.269 21.2306C-105.52 21.2306 -101.779 22.857 -97.8359 24.5712C-93.4424 26.4811 -88.7981 28.5 -82.2307 28.5C-77.4269 28.5 -73.1334 26.7144 -68.8021 24.9131C-64.3943 23.08 -59.9474 21.2306 -54.884 21.2306C-50.1357 21.2306 -46.3945 22.857 -42.4512 24.5712C-38.0577 26.4811 -33.4134 28.5 -26.846 28.5C-22.0423 28.5 -17.7487 26.7144 -13.4174 24.9131C-9.00958 23.08 -4.56268 21.2306 0.500656 21.2306C5.24893 21.2306 8.99019 22.857 12.9335 24.5712C17.327 26.4811 21.9713 28.5 28.5387 28.5C33.3424 28.5 37.636 26.7144 41.9672 24.9131C46.3751 23.08 50.822 21.2306 55.8853 21.2306C60.6336 21.2306 64.3749 22.857 68.3181 24.5712C72.7116 26.4811 77.3559 28.5 83.9233 28.5C88.7271 28.5 93.0207 26.7144 97.3519 24.9131C101.76 23.08 106.207 21.2306 111.27 21.2306C116.018 21.2306 119.76 22.857 123.703 24.5712C128.096 26.4811 132.741 28.5 139.308 28.5C144.112 28.5 148.405 26.7144 152.737 24.9131C157.144 23.08 161.591 21.2306 166.655 21.2306C171.403 21.2306 175.144 22.857 179.087 24.5712C183.481 26.4811 188.125 28.5 194.693 28.5C199.496 28.5 203.79 26.7144 208.121 24.9131C212.529 23.08 216.976 21.2306 222.039 21.2306C226.788 21.2306 230.529 22.857 234.472 24.5712C238.866 26.4811 243.51 28.5 250.077 28.5C254.881 28.5 259.175 26.7144 263.506 24.9131C267.914 23.08 272.361 21.2306 277.424 21.2306C282.172 21.2306 285.914 22.857 289.857 24.5712C294.25 26.4811 298.895 28.5 305.462 28.5C310.266 28.5 314.559 26.7144 318.891 24.9131C323.298 23.08 327.745 21.2306 332.809 21.2306C337.557 21.2306 341.298 22.857 345.242 24.5712C349.635 26.4811 354.279 28.5 360.847 28.5C365.651 28.5 369.944 26.7144 374.275 24.9131C378.683 23.08 383.13 21.2306 388.193 21.2306C392.942 21.2306 396.683 22.857 400.626 24.5712C405.02 26.4811 409.664 28.5 416.231 28.5C421.035 28.5 425.329 26.7144 429.66 24.9131C434.068 23.08 438.515 21.2306 443.578 21.2306C448.326 21.2306 452.068 22.857 456.011 24.5712C460.404 26.4811 465.049 28.5 471.616 28.5C476.42 28.5 480.713 26.7144 485.045 24.9131C489.453 23.08 493.899 21.2306 498.963 21.2306C503.711 21.2306 507.452 22.857 511.396 24.5712C515.789 26.481 520.433 28.4999 527 28.5C531.803 28.4998 536.098 26.7143 540.429 24.9131C544.836 23.08 549.283 21.2306 554.347 21.2306C559.095 21.2306 562.836 22.857 566.779 24.5712C571.173 26.4811 575.817 28.5 582.385 28.5C587.188 28.5 591.482 26.7144 595.813 24.9131C600.221 23.08 604.668 21.2306 609.731 21.2306C614.48 21.2306 618.221 22.857 622.164 24.5712C626.558 26.4811 631.202 28.5 637.769 28.5C642.573 28.5 646.867 26.7144 651.198 24.9131C655.606 23.08 660.053 21.2306 665.116 21.2306C669.864 21.2306 673.606 22.857 677.549 24.5712C681.942 26.4811 686.587 28.5 693.154 28.5C697.958 28.5 702.251 26.7144 706.583 24.9131C710.99 23.08 715.437 21.2306 720.501 21.2306C725.249 21.2306 728.99 22.857 732.934 24.5712C737.327 26.4811 741.971 28.5 748.539 28.5C753.342 28.5 757.636 26.7144 761.967 24.9131C766.375 23.08 770.822 21.2306 775.885 21.2306C780.634 21.2306 784.375 22.857 788.318 24.5712C792.712 26.4811 797.356 28.5 803.923 28.5C808.727 28.5 813.021 26.7144 817.352 24.9131C821.76 23.08 826.207 21.2306 831.27 21.2306C836.018 21.2306 839.76 22.857 843.703 24.5712C848.096 26.4811 852.741 28.5 859.308 28.5C864.112 28.5 868.405 26.7144 872.737 24.9131C877.144 23.08 881.591 21.2306 886.655 21.2306C891.403 21.2306 895.144 22.857 899.088 24.5712C903.481 26.4811 908.125 28.5 914.693 28.5C919.496 28.5 923.791 26.7144 928.122 24.9131C932.53 23.08 936.977 21.2306 942.04 21.2306C946.788 21.2306 950.53 22.857 954.473 24.5712C958.866 26.481 963.51 28.4999 970.077 28.5C974.881 28.4998 979.175 26.7143 983.506 24.9131C987.914 23.08 992.361 21.2306 997.424 21.2306C1002.17 21.2306 1005.91 22.857 1009.86 24.5712C1014.25 26.4811 1018.89 28.5 1025.46 28.5C1030.27 28.5 1034.56 26.7144 1038.89 24.9131C1043.3 23.08 1047.75 21.2306 1052.81 21.2306C1057.56 21.2306 1061.3 22.857 1065.24 24.5712C1069.64 26.481 1074.28 28.4999 1080.85 28.5C1085.65 28.4998 1089.94 26.7143 1094.28 24.9131C1098.68 23.08 1103.13 21.2306 1108.19 21.2306C1112.94 21.2306 1116.68 22.857 1120.63 24.5712C1125.02 26.4811 1129.66 28.5 1136.23 28.5C1141.04 28.5 1145.33 26.7144 1149.66 24.9131C1154.07 23.08 1158.52 21.2306 1163.58 21.2306C1168.33 21.2306 1172.07 22.857 1176.01 24.5712C1180.4 26.481 1185.05 28.4999 1191.62 28.5C1196.42 28.4998 1200.71 26.7143 1205.04 24.9131C1209.45 23.08 1213.9 21.2306 1218.96 21.2306C1223.71 21.2306 1227.45 22.857 1231.4 24.5712C1235.79 26.4811 1240.43 28.5 1247 28.5V-0.499937H-193V28.5C-188.196 28.5 -183.903 26.7144 -179.571 24.9131C-175.164 23.08 -170.717 21.2306 -165.653 21.2306C-160.905 21.2306 -157.164 22.857 -153.221 24.5712L-153.22 24.5712Z" fill="white"/>
</g>
<path d="M1246.78 28.3104C1240.21 28.3104 1235.56 26.2915 1231.17 24.3816C1227.23 22.6674 1223.49 21.041 1218.74 21.041C1213.67 21.041 1209.23 22.8904 1204.82 24.7235C1200.49 26.5248 1196.19 28.3104 1191.39 28.3104C1184.82 28.3104 1180.18 26.2915 1175.79 24.3816C1171.84 22.6674 1168.1 21.041 1163.35 21.041C1158.29 21.041 1153.84 22.8904 1149.44 24.7235C1145.1 26.5248 1140.81 28.3104 1136.01 28.3104C1129.44 28.3104 1124.8 26.2915 1120.4 24.3816C1116.46 22.6674 1112.72 21.041 1107.97 21.041C1102.91 21.041 1098.46 22.8904 1094.05 24.7235C1089.72 26.5248 1085.43 28.3104 1080.62 28.3104C1074.05 28.3104 1069.41 26.2915 1065.02 24.3816C1061.07 22.6674 1057.33 21.041 1052.58 21.041C1047.52 21.041 1043.07 22.8904 1038.67 24.7235C1034.33 26.5248 1030.04 28.3104 1025.24 28.3104C1018.67 28.3104 1014.03 26.2915 1009.63 24.3816C1005.69 22.6674 1001.95 21.041 997.2 21.041C992.136 21.041 987.689 22.8904 983.281 24.7235C978.95 26.5248 974.657 28.3104 969.853 28.3104C963.286 28.3104 958.641 26.2915 954.248 24.3816C950.304 22.6674 946.563 21.041 941.815 21.041C936.752 21.041 932.305 22.8904 927.897 24.7235C923.566 26.5248 919.272 28.3104 914.468 28.3104C907.901 28.3104 903.257 26.2915 898.863 24.3816C894.92 22.6674 891.179 21.041 886.43 21.041C881.367 21.041 876.92 22.8904 872.512 24.7235C868.181 26.5248 863.887 28.3104 859.084 28.3104C852.516 28.3104 847.872 26.2915 843.478 24.3816C839.535 22.6674 835.794 21.041 831.046 21.041C825.982 21.041 821.535 22.8904 817.128 24.7235C812.796 26.5248 808.503 28.3104 803.699 28.3104C797.132 28.3104 792.487 26.2915 788.094 24.3816C784.151 22.6674 780.409 21.041 775.661 21.041C770.598 21.041 766.151 22.8904 761.743 24.7235C757.412 26.5248 753.118 28.3104 748.314 28.3104C741.747 28.3104 737.103 26.2915 732.709 24.3816C728.766 22.6674 725.025 21.041 720.276 21.041C715.213 21.041 710.766 22.8904 706.358 24.7235C702.027 26.5248 697.733 28.3104 692.93 28.3104C686.362 28.3104 681.718 26.2915 677.325 24.3816C673.381 22.6674 669.64 21.041 664.892 21.041C659.828 21.041 655.381 22.8904 650.974 24.7235C646.642 26.5248 642.349 28.3104 637.545 28.3104C630.978 28.3104 626.333 26.2915 621.94 24.3816C617.997 22.6674 614.255 21.041 609.507 21.041C604.444 21.041 599.997 22.8904 595.589 24.7235C591.258 26.5248 586.964 28.3104 582.16 28.3104C575.593 28.3104 570.949 26.2915 566.555 24.3816C562.612 22.6674 558.871 21.041 554.122 21.041C549.059 21.041 544.612 22.8904 540.204 24.7235C535.873 26.5248 531.579 28.3104 526.776 28.3104C520.208 28.3104 515.564 26.2915 511.171 24.3816C507.227 22.6674 503.486 21.041 498.738 21.041C493.674 21.041 489.228 22.8904 484.82 24.7235C480.488 26.5248 476.195 28.3104 471.391 28.3104C464.824 28.3104 460.179 26.2915 455.786 24.3816C451.843 22.6674 448.101 21.041 443.353 21.041C438.29 21.041 433.843 22.8904 429.435 24.7235C425.104 26.5248 420.81 28.3104 416.006 28.3104C409.439 28.3104 404.795 26.2915 400.401 24.3816C396.458 22.6674 392.717 21.041 387.968 21.041C382.905 21.041 378.458 22.8904 374.05 24.7235C369.719 26.5248 365.426 28.3104 360.622 28.3104C354.054 28.3104 349.41 26.2915 345.017 24.3816C341.073 22.6674 337.332 21.041 332.584 21.041C327.52 21.041 323.074 22.8904 318.666 24.7235C314.334 26.5248 310.041 28.3104 305.237 28.3104C298.67 28.3104 294.025 26.2915 289.632 24.3816C285.689 22.6674 281.948 21.041 277.199 21.041C272.136 21.041 267.689 22.8904 263.281 24.7235C258.95 26.5248 254.656 28.3104 249.853 28.3104C243.285 28.3104 238.641 26.2915 234.247 24.3816C230.304 22.6674 226.563 21.041 221.815 21.041C216.751 21.041 212.304 22.8904 207.896 24.7235C203.565 26.5248 199.272 28.3104 194.468 28.3104C187.901 28.3104 183.256 26.2915 178.863 24.3816C174.919 22.6674 171.178 21.041 166.43 21.041C161.367 21.041 156.92 22.8904 152.512 24.7235C148.181 26.5248 143.887 28.3104 139.083 28.3104C132.516 28.3104 127.872 26.2915 123.478 24.3816C119.535 22.6674 115.794 21.041 111.045 21.041C105.982 21.041 101.535 22.8904 97.1271 24.7235C92.7959 26.5248 88.5023 28.3104 83.6986 28.3104C77.1312 28.3104 72.4869 26.2915 68.0934 24.3816C64.1501 22.6674 60.4089 21.041 55.6606 21.041C50.5973 21.041 46.1504 22.8904 41.7425 24.7235C37.4113 26.5248 33.1177 28.3104 28.314 28.3104C21.7466 28.3104 17.1023 26.2915 12.7088 24.3816C8.76549 22.6674 5.02423 21.041 0.275976 21.041C-4.78738 21.041 -9.23428 22.8904 -13.6422 24.7235C-17.9734 26.5248 -22.2669 28.3104 -27.0707 28.3104C-33.6381 28.3104 -38.2824 26.2915 -42.6759 24.3816C-46.6191 22.6674 -50.3604 21.041 -55.1087 21.041C-60.172 21.041 -64.6189 22.8904 -69.0268 24.7235C-73.358 26.5248 -77.6516 28.3104 -82.4553 28.3104C-89.0227 28.3104 -93.667 26.2915 -98.0605 24.3816C-102.004 22.6674 -105.745 21.041 -110.493 21.041C-115.557 21.041 -120.004 22.8904 -124.411 24.7235C-128.743 26.5248 -133.036 28.3104 -137.84 28.3104C-144.407 28.3104 -149.052 26.2915 -153.445 24.3816C-157.388 22.6674 -161.13 21.041 -165.878 21.041C-170.941 21.041 -175.388 22.8904 -179.796 24.7235C-184.127 26.5248 -188.421 28.3104 -193.225 28.3104" stroke="#FF6115"/>
</g>
<defs>
<filter id="filter0_d_725_1360" x="-213" y="-13.5" width="1480" height="69" filterUnits="userSpaceOnUse" color-interpolation-filters="sRGB">
<feFlood flood-opacity="0" result="BackgroundImageFix"/>
<feColorMatrix in="SourceAlpha" type="matrix" values="0 0 0 0 0 0 0 0 0 0 0 0 0 0 0 0 0 0 127 0" result="hardAlpha"/>
<feOffset dy="7"/>
<feGaussianBlur stdDeviation="10"/>
<feComposite in2="hardAlpha" operator="out"/>
<feColorMatrix type="matrix" values="0 0 0 0 0.973517 0 0 0 0 0.0862163 0 0 0 0 0.101005 0 0 0 0.2 0"/>
<feBlend mode="normal" in2="BackgroundImageFix" result="effect1_dropShadow_725_1360"/>
<feBlend mode="normal" in="SourceGraphic" in2="effect1_dropShadow_725_1360" result="shape"/>
</filter>
<clipPath id="clip0_725_1360">
<rect width="56" height="47" fill="white"/>
</clipPath>
</defs>
</svg>
