<svg width="1208" height="566" viewBox="0 0 1208 566" fill="none" xmlns="http://www.w3.org/2000/svg">
<g clip-path="url(#clip0_952_1089)">
<mask id="mask0_952_1089" style="mask-type:alpha" maskUnits="userSpaceOnUse" x="-16" y="-1" width="1225" height="567">
<path fill-rule="evenodd" clip-rule="evenodd" d="M1208 -0.000976562H0.000976562V115.271H-6.49888C-11.7462 115.271 -16 119.525 -16 124.772V131.833C-16 137.08 -11.7462 141.334 -6.49888 141.334H0.000976562V269.629H-6.49888C-11.7462 269.629 -16 273.883 -16 279.13V285.742C-16 290.989 -11.7462 295.243 -6.49888 295.243H0.000976562V424.208H-6.49888C-11.7462 424.208 -16 428.462 -16 433.71V440.321C-16 445.568 -11.7462 449.822 -6.49888 449.822H0.000976562V566H1208V-0.000976562ZM0.000976562 449.822H16.7675C20.362 449.822 23.2759 452.736 23.2759 456.33C23.2759 459.925 26.1897 462.838 29.7842 462.838H37.4989C42.7462 462.838 47 458.585 47 453.337V421.113C47 415.865 42.7462 411.612 37.4989 411.612H29.5742C26.0957 411.612 23.2759 414.432 23.2759 417.91C23.2759 421.389 20.456 424.208 16.9775 424.208H0.000976562V449.822ZM0.000976562 295.243H16.7675C20.362 295.243 23.2759 298.157 23.2759 301.751C23.2759 305.345 26.1897 308.259 29.7842 308.259H37.4989C42.7462 308.259 47 304.006 47 298.758V266.534C47 261.286 42.7462 257.033 37.4989 257.033H29.5742C26.0957 257.033 23.2759 259.852 23.2759 263.331C23.2759 266.809 20.456 269.629 16.9775 269.629H0.000976562V295.243ZM0.000976562 141.334H16.6534C20.3109 141.334 23.2759 144.299 23.2759 147.956C23.2759 151.614 26.2409 154.579 29.8984 154.579H37.4989C42.7462 154.579 47 150.325 47 145.078V111.955C47 106.707 42.7462 102.453 37.4989 102.453H29.6847C26.1452 102.453 23.2759 105.323 23.2759 108.862C23.2759 112.402 20.4065 115.271 16.867 115.271H0.000976562V141.334Z" fill="#D9D9D9"/>
</mask>
<g mask="url(#mask0_952_1089)">
<rect width="1208" height="566" fill="#282827"/>
</g>
</g>
<defs>
<clipPath id="clip0_952_1089">
<rect width="1208" height="566" rx="36" fill="white"/>
</clipPath>
</defs>
</svg>
