<svg width="566" height="79" viewBox="0 0 566 79" fill="none" xmlns="http://www.w3.org/2000/svg">
<g clip-path="url(#clip0_992_1079)">
<mask id="mask0_992_1079" style="mask-type:alpha" maskUnits="userSpaceOnUse" x="0" y="-16" width="567" height="1224">
<path fill-rule="evenodd" clip-rule="evenodd" d="M566.001 1208L566.001 0.000976562L450.729 0.000976563V-6.49888C450.729 -11.7462 446.475 -16 441.228 -16H434.167C428.92 -16 424.666 -11.7462 424.666 -6.49888V0.000976563L296.371 0.000976563V-6.49888C296.371 -11.7462 292.117 -16 286.87 -16H280.258C275.011 -16 270.757 -11.7462 270.757 -6.49888V0.000976563L141.792 0.000976563V-6.49888C141.792 -11.7462 137.538 -16 132.29 -16H125.679C120.432 -16 116.178 -11.7462 116.178 -6.49888V0.000976563L0 0.000976563L0 1208H566.001ZM116.178 0.000976563V16.7675C116.178 20.362 113.264 23.2759 109.67 23.2759C106.075 23.2759 103.162 26.1897 103.162 29.7842V37.4989C103.162 42.7462 107.415 47 112.663 47L144.887 47C150.135 47 154.388 42.7462 154.388 37.4989V29.5742C154.388 26.0957 151.568 23.2759 148.09 23.2759C144.611 23.2759 141.792 20.456 141.792 16.9775V0.000976563L116.178 0.000976563ZM270.757 0.000976563V16.7675C270.757 20.362 267.843 23.2759 264.249 23.2759C260.655 23.2759 257.741 26.1897 257.741 29.7842V37.4989C257.741 42.7462 261.994 47 267.242 47L299.466 47C304.714 47 308.967 42.7462 308.967 37.4989V29.5742C308.967 26.0957 306.148 23.2759 302.669 23.2759C299.191 23.2759 296.371 20.456 296.371 16.9775V0.000976563L270.757 0.000976563ZM424.666 0.000976563V16.6534C424.666 20.3109 421.701 23.2759 418.044 23.2759C414.386 23.2759 411.421 26.2409 411.421 29.8984V37.4989C411.421 42.7462 415.675 47 420.922 47L454.045 47C459.293 47 463.547 42.7462 463.547 37.4989V29.6847C463.547 26.1452 460.677 23.2759 457.138 23.2759C453.598 23.2759 450.729 20.4065 450.729 16.867V0.000976563L424.666 0.000976563Z" fill="#D9D9D9"/>
</mask>
<g mask="url(#mask0_992_1079)">
<rect x="566" width="1208" height="566" transform="rotate(90 566 0)" fill="#F4F2F0"/>
</g>
</g>
<defs>
<clipPath id="clip0_992_1079">
<path d="M530 0C549.882 0 566 16.1177 566 36V79L0 79V36C0 16.1178 16.1178 0 36 0L530 0Z" fill="white"/>
</clipPath>
</defs>
</svg>
