<svg width="79" height="566" viewBox="0 0 79 566" fill="none" xmlns="http://www.w3.org/2000/svg">
<g clip-path="url(#clip0_952_1124)">
<mask id="mask0_952_1124" style="mask-type:alpha" maskUnits="userSpaceOnUse" x="-16" y="0" width="1225" height="566">
<path fill-rule="evenodd" clip-rule="evenodd" d="M1208 0H0.000976562V115.272H-6.49888C-11.7462 115.272 -16 119.526 -16 124.773V131.834C-16 137.081 -11.7462 141.335 -6.49888 141.335H0.000976562V269.63H-6.49888C-11.7462 269.63 -16 273.884 -16 279.131V285.743C-16 290.99 -11.7462 295.244 -6.49888 295.244H0.000976562V424.209H-6.49888C-11.7462 424.209 -16 428.463 -16 433.71V440.322C-16 445.569 -11.7462 449.823 -6.49888 449.823H0.000976562V566.001H1208V0ZM0.000976562 449.823H16.7675C20.362 449.823 23.2759 452.737 23.2759 456.331C23.2759 459.926 26.1897 462.839 29.7842 462.839H37.4989C42.7462 462.839 47 458.586 47 453.338V421.114C47 415.866 42.7462 411.613 37.4989 411.613H29.5742C26.0957 411.613 23.2759 414.432 23.2759 417.911C23.2759 421.389 20.456 424.209 16.9775 424.209H0.000976562V449.823ZM0.000976562 295.244H16.7675C20.362 295.244 23.2759 298.158 23.2759 301.752C23.2759 305.346 26.1897 308.26 29.7842 308.26H37.4989C42.7462 308.26 47 304.007 47 298.759V266.535C47 261.287 42.7462 257.034 37.4989 257.034H29.5742C26.0957 257.034 23.2759 259.853 23.2759 263.332C23.2759 266.81 20.456 269.63 16.9775 269.63H0.000976562V295.244ZM0.000976562 141.335H16.6534C20.3109 141.335 23.2759 144.3 23.2759 147.957C23.2759 151.615 26.2409 154.58 29.8984 154.58H37.4989C42.7462 154.58 47 150.326 47 145.079V111.956C47 106.708 42.7462 102.454 37.4989 102.454H29.6847C26.1452 102.454 23.2759 105.324 23.2759 108.863C23.2759 112.403 20.4065 115.272 16.867 115.272H0.000976562V141.335Z" fill="#D9D9D9"/>
</mask>
<g mask="url(#mask0_952_1124)">
<rect width="1208" height="566" fill="#2D2D2D"/>
</g>
</g>
<defs>
<clipPath id="clip0_952_1124">
<path d="M0 36C0 16.1177 16.1177 0 36 0H79V566H36C16.1178 566 0 549.882 0 530V36Z" fill="white"/>
</clipPath>
</defs>
</svg>
