<svg width="528" height="781" viewBox="0 0 528 781" fill="none" xmlns="http://www.w3.org/2000/svg">
<path opacity="0.6" fill-rule="evenodd" clip-rule="evenodd" d="M301.866 6.04105C409.82 8.06096 488.147 99.3621 516.941 201.697C541.873 290.303 501.376 384.451 422.013 433.041C356.088 473.404 281.335 428.054 216.936 385.375C140.335 334.61 40.1734 281.862 60.0357 193.148C84.419 84.2423 188.489 3.91968 301.866 6.04105Z" fill="#EBD9B7" fill-opacity="0.4"/>
<path opacity="0.7" fill-rule="evenodd" clip-rule="evenodd" d="M35.9079 759.832C2.87355 737.27 -2.84003 693.068 9.03397 655.513C19.3149 622.996 50.992 602.057 85.4529 603.13C114.079 604.022 128.022 633.261 139.301 659.57C152.717 690.863 173.029 727.557 148.849 751.005C119.165 779.79 70.6018 783.528 35.9079 759.832Z" fill="#EBD9B7" fill-opacity="0.4"/>
</svg>
