<svg width="286" height="379" viewBox="0 0 286 379" fill="none" xmlns="http://www.w3.org/2000/svg">
<path fill-rule="evenodd" clip-rule="evenodd" d="M39.8873 332.203C48.6208 339.705 48.8526 352.53 44.2643 362.896C40.2917 371.871 30.566 376.855 20.7426 375.455C12.5824 374.291 9.52167 365.485 7.1302 357.602C4.28561 348.225 -0.360324 337.084 7.30045 331.144C16.705 323.852 30.7151 324.324 39.8873 332.203Z" fill="#3D2E29" fill-opacity="0.97"/>
<path fill-rule="evenodd" clip-rule="evenodd" d="M17.454 177.046C11.4775 197.552 15.1176 221.446 33.304 233.273C52.404 245.693 78.6866 243.071 94.4264 227.101C105.91 215.45 97.9132 198.476 90.6177 182.989C89.7675 181.185 88.9269 179.4 88.1277 177.647C81.6901 163.522 73.7717 147.841 58.2413 147.709C39.5453 147.55 22.6287 159.291 17.454 177.046ZM34.2341 188.043C38.5406 197.626 47.5277 205.408 58.1091 204.032C69.2221 202.586 78.2234 193.218 79.0189 182.217C79.5993 174.192 71.1896 170.39 63.5169 166.921C62.6229 166.517 61.7388 166.117 60.8801 165.716C53.9632 162.483 45.9953 159.14 40.1399 164.047C33.091 169.953 30.5053 179.746 34.2341 188.043Z" fill="#47332D" fill-opacity="0.82"/>
<path fill-rule="evenodd" clip-rule="evenodd" d="M177.485 73.8851C192.74 95.2181 218.564 109.841 243.783 101.265C270.268 92.2582 287.687 64.9012 284.22 37.5882C281.691 17.6614 259.239 12.4953 238.754 7.78196C236.367 7.23273 234.007 6.68964 231.708 6.13007C213.19 1.62245 192.045 -2.63741 180.129 12.2516C165.785 30.1755 164.277 55.4141 177.485 73.8851ZM267.962 55.0918C272.55 44.726 272.318 31.9007 263.585 24.3986C254.412 16.5196 240.402 16.0476 230.998 23.3396C224.136 28.6597 227.147 38.1518 229.894 46.812C230.214 47.8212 230.531 48.819 230.827 49.7977C233.219 57.681 236.28 66.4874 244.44 67.6508C254.263 69.0513 263.989 64.067 267.962 55.0918Z" fill="#543830" fill-opacity="0.84"/>
</svg>
